<?xml version="1.0" encoding="UTF-8" standalone="no"?>
<!DOCTYPE svg PUBLIC "-//W3C//DTD SVG 1.1//EN"
 "http://www.w3.org/Graphics/SVG/1.1/DTD/svg11.dtd">
<!-- Generated by graphviz version 2.28.0 (20130409.2258)
 -->
<!-- Title: controllers_diagram Pages: 1 -->
<svg width="1350pt" height="1243pt"
 viewBox="0.00 0.00 1349.98 1242.67" xmlns="http://www.w3.org/2000/svg" xmlns:xlink="http://www.w3.org/1999/xlink">
<g id="graph1" class="graph" transform="scale(1 1) rotate(0) translate(4 1238.67)">
<title>controllers_diagram</title>
<polygon fill="white" stroke="white" points="-4,5 -4,-1238.67 1346.98,-1238.67 1346.98,5 -4,5"/>
<!-- _diagram_info -->
<g id="node1" class="node"><title>_diagram_info</title>
<text text-anchor="start" x="1008.89" y="-146" font-family="Times,serif" font-size="13.00">Controllers diagram</text>
<text text-anchor="start" x="1008.89" y="-130.4" font-family="Times,serif" font-size="13.00">Date: Apr 26 2013 &#45; 15:56</text>
<text text-anchor="start" x="1008.89" y="-114.8" font-family="Times,serif" font-size="13.00">Migration version: 20130425060910</text>
<text text-anchor="start" x="1008.89" y="-99.2" font-family="Times,serif" font-size="13.00">Generated by RailRoady 1.1.0</text>
<text text-anchor="start" x="1008.89" y="-83.6" font-family="Times,serif" font-size="13.00">http://railroady.prestonlee.com</text>
</g>
<!-- AccountsController -->
<g id="node2" class="node"><title>AccountsController</title>
<polyline fill="none" stroke="black" points="11.8948,-516.528 114.316,-516.528 "/>
<path fill="none" stroke="black" d="M114.316,-516.528C120.316,-516.528 126.316,-522.528 126.316,-528.528"/>
<polyline fill="none" stroke="black" points="126.316,-528.528 126.316,-787.728 "/>
<path fill="none" stroke="black" d="M126.316,-787.728C126.316,-793.728 120.316,-799.728 114.316,-799.728"/>
<polyline fill="none" stroke="black" points="114.316,-799.728 11.8948,-799.728 "/>
<path fill="none" stroke="black" d="M11.8948,-799.728C5.89478,-799.728 -0.105225,-793.728 -0.105225,-787.728"/>
<polyline fill="none" stroke="black" points="-0.105225,-787.728 -0.105225,-528.528 "/>
<path fill="none" stroke="black" d="M-0.105225,-528.528C-0.105225,-522.528 5.89478,-516.528 11.8948,-516.528"/>
<text text-anchor="middle" x="63.1052" y="-781.728" font-family="Times,serif" font-size="14.00">AccountsController</text>
<polyline fill="none" stroke="black" points="-0.105225,-774.928 126.316,-774.928 "/>
<text text-anchor="start" x="7.89478" y="-756.928" font-family="Times,serif" font-size="14.00">add_seal</text>
<text text-anchor="start" x="7.89478" y="-740.128" font-family="Times,serif" font-size="14.00">buy_seal</text>
<text text-anchor="start" x="7.89478" y="-723.328" font-family="Times,serif" font-size="14.00">customize</text>
<text text-anchor="start" x="7.89478" y="-706.528" font-family="Times,serif" font-size="14.00">edit</text>
<text text-anchor="start" x="7.89478" y="-689.728" font-family="Times,serif" font-size="14.00">index</text>
<text text-anchor="start" x="7.89478" y="-672.928" font-family="Times,serif" font-size="14.00">recruits</text>
<text text-anchor="start" x="7.89478" y="-656.128" font-family="Times,serif" font-size="14.00">remove_seal</text>
<text text-anchor="start" x="7.89478" y="-639.328" font-family="Times,serif" font-size="14.00">show</text>
<text text-anchor="start" x="7.89478" y="-622.528" font-family="Times,serif" font-size="14.00">suspend</text>
<text text-anchor="start" x="7.89478" y="-605.728" font-family="Times,serif" font-size="14.00">update</text>
<polyline fill="none" stroke="black" points="-0.105225,-598.928 126.316,-598.928 "/>
<polyline fill="none" stroke="black" points="-0.105225,-574.928 126.316,-574.928 "/>
<text text-anchor="start" x="7.89478" y="-556.928" font-family="Times,serif" font-size="14.00">_layout</text>
<text text-anchor="start" x="7.89478" y="-540.128" font-family="Times,serif" font-size="14.00">account_params</text>
<text text-anchor="start" x="7.89478" y="-523.328" font-family="Times,serif" font-size="14.00">load_account</text>
</g>
<!-- ApplicationController -->
<g id="node3" class="node"><title>ApplicationController</title>
<polyline fill="none" stroke="black" points="499.124,-551.587 682.373,-551.587 "/>
<path fill="none" stroke="black" d="M682.373,-551.587C688.373,-551.587 694.373,-557.587 694.373,-563.587"/>
<polyline fill="none" stroke="black" points="694.373,-563.587 694.373,-721.987 "/>
<path fill="none" stroke="black" d="M694.373,-721.987C694.373,-727.987 688.373,-733.987 682.373,-733.987"/>
<polyline fill="none" stroke="black" points="682.373,-733.987 499.124,-733.987 "/>
<path fill="none" stroke="black" d="M499.124,-733.987C493.124,-733.987 487.124,-727.987 487.124,-721.987"/>
<polyline fill="none" stroke="black" points="487.124,-721.987 487.124,-563.587 "/>
<path fill="none" stroke="black" d="M487.124,-563.587C487.124,-557.587 493.124,-551.587 499.124,-551.587"/>
<text text-anchor="middle" x="590.748" y="-715.987" font-family="Times,serif" font-size="14.00">ApplicationController</text>
<polyline fill="none" stroke="black" points="487.124,-709.187 694.373,-709.187 "/>
<text text-anchor="start" x="495.124" y="-691.187" font-family="Times,serif" font-size="14.00">_one_time_conditions_valid_72?</text>
<text text-anchor="start" x="495.124" y="-674.387" font-family="Times,serif" font-size="14.00">current_account</text>
<text text-anchor="start" x="495.124" y="-657.587" font-family="Times,serif" font-size="14.00">current_location</text>
<text text-anchor="start" x="495.124" y="-640.787" font-family="Times,serif" font-size="14.00">human_readable_current_location</text>
<polyline fill="none" stroke="black" points="487.124,-633.987 694.373,-633.987 "/>
<polyline fill="none" stroke="black" points="487.124,-609.987 694.373,-609.987 "/>
<text text-anchor="start" x="495.124" y="-591.987" font-family="Times,serif" font-size="14.00">_layout</text>
<text text-anchor="start" x="495.124" y="-575.187" font-family="Times,serif" font-size="14.00">authorize_admin_user!</text>
<text text-anchor="start" x="495.124" y="-558.387" font-family="Times,serif" font-size="14.00">render_error</text>
</g>
<!-- ApplicationController&#45;&gt;AccountsController -->
<g id="edge2" class="edge"><title>ApplicationController&#45;&gt;AccountsController</title>
<path fill="none" stroke="black" d="M486.818,-645.809C379.636,-648.925 215.922,-653.685 126.622,-656.281"/>
</g>
<!-- ArticlesController -->
<g id="node4" class="node"><title>ArticlesController</title>
<polyline fill="none" stroke="black" points="483.126,-0.5 576.989,-0.5 "/>
<path fill="none" stroke="black" d="M576.989,-0.5C582.989,-0.5 588.989,-6.5 588.989,-12.5"/>
<polyline fill="none" stroke="black" points="588.989,-12.5 588.989,-204.5 "/>
<path fill="none" stroke="black" d="M588.989,-204.5C588.989,-210.5 582.989,-216.5 576.989,-216.5"/>
<polyline fill="none" stroke="black" points="576.989,-216.5 483.126,-216.5 "/>
<path fill="none" stroke="black" d="M483.126,-216.5C477.126,-216.5 471.126,-210.5 471.126,-204.5"/>
<polyline fill="none" stroke="black" points="471.126,-204.5 471.126,-12.5 "/>
<path fill="none" stroke="black" d="M471.126,-12.5C471.126,-6.5 477.126,-0.5 483.126,-0.5"/>
<text text-anchor="middle" x="530.057" y="-198.5" font-family="Times,serif" font-size="14.00">ArticlesController</text>
<polyline fill="none" stroke="black" points="471.126,-191.7 588.989,-191.7 "/>
<text text-anchor="start" x="479.126" y="-173.7" font-family="Times,serif" font-size="14.00">create</text>
<text text-anchor="start" x="479.126" y="-156.9" font-family="Times,serif" font-size="14.00">edit</text>
<text text-anchor="start" x="479.126" y="-140.1" font-family="Times,serif" font-size="14.00">index</text>
<text text-anchor="start" x="479.126" y="-123.3" font-family="Times,serif" font-size="14.00">new</text>
<text text-anchor="start" x="479.126" y="-106.5" font-family="Times,serif" font-size="14.00">show</text>
<text text-anchor="start" x="479.126" y="-89.7" font-family="Times,serif" font-size="14.00">update</text>
<polyline fill="none" stroke="black" points="471.126,-82.9 588.989,-82.9 "/>
<polyline fill="none" stroke="black" points="471.126,-58.9 588.989,-58.9 "/>
<text text-anchor="start" x="479.126" y="-40.9" font-family="Times,serif" font-size="14.00">_layout</text>
<text text-anchor="start" x="479.126" y="-24.1" font-family="Times,serif" font-size="14.00">article_params</text>
<text text-anchor="start" x="479.126" y="-7.3" font-family="Times,serif" font-size="14.00">load_article</text>
</g>
<!-- ApplicationController&#45;&gt;ArticlesController -->
<g id="edge4" class="edge"><title>ApplicationController&#45;&gt;ArticlesController</title>
<path fill="none" stroke="black" d="M580.384,-551.547C569.855,-458.855 553.548,-315.302 542.368,-216.876"/>
</g>
<!-- CategoriesController -->
<g id="node5" class="node"><title>CategoriesController</title>
<polyline fill="none" stroke="black" points="339.888,-1034.97 449.302,-1034.97 "/>
<path fill="none" stroke="black" d="M449.302,-1034.97C455.302,-1034.97 461.302,-1040.97 461.302,-1046.97"/>
<polyline fill="none" stroke="black" points="461.302,-1046.97 461.302,-1222.17 "/>
<path fill="none" stroke="black" d="M461.302,-1222.17C461.302,-1228.17 455.302,-1234.17 449.302,-1234.17"/>
<polyline fill="none" stroke="black" points="449.302,-1234.17 339.888,-1234.17 "/>
<path fill="none" stroke="black" d="M339.888,-1234.17C333.888,-1234.17 327.888,-1228.17 327.888,-1222.17"/>
<polyline fill="none" stroke="black" points="327.888,-1222.17 327.888,-1046.97 "/>
<path fill="none" stroke="black" d="M327.888,-1046.97C327.888,-1040.97 333.888,-1034.97 339.888,-1034.97"/>
<text text-anchor="middle" x="394.595" y="-1216.17" font-family="Times,serif" font-size="14.00">CategoriesController</text>
<polyline fill="none" stroke="black" points="327.888,-1209.37 461.302,-1209.37 "/>
<text text-anchor="start" x="335.888" y="-1191.37" font-family="Times,serif" font-size="14.00">create</text>
<text text-anchor="start" x="335.888" y="-1174.57" font-family="Times,serif" font-size="14.00">edit</text>
<text text-anchor="start" x="335.888" y="-1157.77" font-family="Times,serif" font-size="14.00">index</text>
<text text-anchor="start" x="335.888" y="-1140.97" font-family="Times,serif" font-size="14.00">new</text>
<text text-anchor="start" x="335.888" y="-1124.17" font-family="Times,serif" font-size="14.00">show</text>
<text text-anchor="start" x="335.888" y="-1107.37" font-family="Times,serif" font-size="14.00">update</text>
<polyline fill="none" stroke="black" points="327.888,-1100.57 461.302,-1100.57 "/>
<polyline fill="none" stroke="black" points="327.888,-1076.57 461.302,-1076.57 "/>
<text text-anchor="start" x="335.888" y="-1058.57" font-family="Times,serif" font-size="14.00">_layout</text>
<text text-anchor="start" x="335.888" y="-1041.77" font-family="Times,serif" font-size="14.00">category_params</text>
</g>
<!-- ApplicationController&#45;&gt;CategoriesController -->
<g id="edge6" class="edge"><title>ApplicationController&#45;&gt;CategoriesController</title>
<path fill="none" stroke="black" d="M554.313,-734.135C520.244,-819.55 469.487,-946.805 434.376,-1034.83"/>
</g>
<!-- CreditPackagesController -->
<g id="node6" class="node"><title>CreditPackagesController</title>
<polyline fill="none" stroke="black" points="714.976,-954.922 851.604,-954.922 "/>
<path fill="none" stroke="black" d="M851.604,-954.922C857.604,-954.922 863.604,-960.922 863.604,-966.922"/>
<polyline fill="none" stroke="black" points="863.604,-966.922 863.604,-1058.12 "/>
<path fill="none" stroke="black" d="M863.604,-1058.12C863.604,-1064.12 857.604,-1070.12 851.604,-1070.12"/>
<polyline fill="none" stroke="black" points="851.604,-1070.12 714.976,-1070.12 "/>
<path fill="none" stroke="black" d="M714.976,-1070.12C708.976,-1070.12 702.976,-1064.12 702.976,-1058.12"/>
<polyline fill="none" stroke="black" points="702.976,-1058.12 702.976,-966.922 "/>
<path fill="none" stroke="black" d="M702.976,-966.922C702.976,-960.922 708.976,-954.922 714.976,-954.922"/>
<text text-anchor="middle" x="783.29" y="-1052.12" font-family="Times,serif" font-size="14.00">CreditPackagesController</text>
<polyline fill="none" stroke="black" points="702.976,-1045.32 863.604,-1045.32 "/>
<text text-anchor="start" x="710.976" y="-1027.32" font-family="Times,serif" font-size="14.00">index</text>
<text text-anchor="start" x="710.976" y="-1010.52" font-family="Times,serif" font-size="14.00">show</text>
<polyline fill="none" stroke="black" points="702.976,-1003.72 863.604,-1003.72 "/>
<polyline fill="none" stroke="black" points="702.976,-979.722 863.604,-979.722 "/>
<text text-anchor="start" x="710.976" y="-961.722" font-family="Times,serif" font-size="14.00">_layout</text>
</g>
<!-- ApplicationController&#45;&gt;CreditPackagesController -->
<g id="edge8" class="edge"><title>ApplicationController&#45;&gt;CreditPackagesController</title>
<path fill="none" stroke="black" d="M638.343,-734.182C674.257,-803.147 722.436,-895.665 753.18,-954.702"/>
</g>
<!-- CreditTransactionsController -->
<g id="node7" class="node"><title>CreditTransactionsController</title>
<polyline fill="none" stroke="black" points="261.213,-881.922 416.797,-881.922 "/>
<path fill="none" stroke="black" d="M416.797,-881.922C422.797,-881.922 428.797,-887.922 428.797,-893.922"/>
<polyline fill="none" stroke="black" points="428.797,-893.922 428.797,-985.122 "/>
<path fill="none" stroke="black" d="M428.797,-985.122C428.797,-991.122 422.797,-997.122 416.797,-997.122"/>
<polyline fill="none" stroke="black" points="416.797,-997.122 261.213,-997.122 "/>
<path fill="none" stroke="black" d="M261.213,-997.122C255.213,-997.122 249.213,-991.122 249.213,-985.122"/>
<polyline fill="none" stroke="black" points="249.213,-985.122 249.213,-893.922 "/>
<path fill="none" stroke="black" d="M249.213,-893.922C249.213,-887.922 255.213,-881.922 261.213,-881.922"/>
<text text-anchor="middle" x="339.005" y="-979.122" font-family="Times,serif" font-size="14.00">CreditTransactionsController</text>
<polyline fill="none" stroke="black" points="249.213,-972.322 428.797,-972.322 "/>
<text text-anchor="start" x="257.213" y="-954.322" font-family="Times,serif" font-size="14.00">create</text>
<polyline fill="none" stroke="black" points="249.213,-947.522 428.797,-947.522 "/>
<polyline fill="none" stroke="black" points="249.213,-923.522 428.797,-923.522 "/>
<text text-anchor="start" x="257.213" y="-905.522" font-family="Times,serif" font-size="14.00">_layout</text>
<text text-anchor="start" x="257.213" y="-888.722" font-family="Times,serif" font-size="14.00">credit_transaction_params</text>
</g>
<!-- ApplicationController&#45;&gt;CreditTransactionsController -->
<g id="edge10" class="edge"><title>ApplicationController&#45;&gt;CreditTransactionsController</title>
<path fill="none" stroke="black" d="M513.163,-734.238C472.422,-782.26 423.728,-839.658 388.2,-881.535"/>
</g>
<!-- DashboardsController -->
<g id="node8" class="node"><title>DashboardsController</title>
<polyline fill="none" stroke="black" points="116.83,-232.419 232.472,-232.419 "/>
<path fill="none" stroke="black" d="M232.472,-232.419C238.472,-232.419 244.472,-238.419 244.472,-244.419"/>
<polyline fill="none" stroke="black" points="244.472,-244.419 244.472,-335.619 "/>
<path fill="none" stroke="black" d="M244.472,-335.619C244.472,-341.619 238.472,-347.619 232.472,-347.619"/>
<polyline fill="none" stroke="black" points="232.472,-347.619 116.83,-347.619 "/>
<path fill="none" stroke="black" d="M116.83,-347.619C110.83,-347.619 104.83,-341.619 104.83,-335.619"/>
<polyline fill="none" stroke="black" points="104.83,-335.619 104.83,-244.419 "/>
<path fill="none" stroke="black" d="M104.83,-244.419C104.83,-238.419 110.83,-232.419 116.83,-232.419"/>
<text text-anchor="middle" x="174.651" y="-329.619" font-family="Times,serif" font-size="14.00">DashboardsController</text>
<polyline fill="none" stroke="black" points="104.83,-322.819 244.472,-322.819 "/>
<text text-anchor="start" x="112.83" y="-304.819" font-family="Times,serif" font-size="14.00">admin</text>
<text text-anchor="start" x="112.83" y="-288.019" font-family="Times,serif" font-size="14.00">home</text>
<polyline fill="none" stroke="black" points="104.83,-281.219 244.472,-281.219 "/>
<polyline fill="none" stroke="black" points="104.83,-257.219 244.472,-257.219 "/>
<text text-anchor="start" x="112.83" y="-239.219" font-family="Times,serif" font-size="14.00">_layout</text>
</g>
<!-- ApplicationController&#45;&gt;DashboardsController -->
<g id="edge12" class="edge"><title>ApplicationController&#45;&gt;DashboardsController</title>
<path fill="none" stroke="black" d="M487.09,-554.906C410.788,-490.217 309.2,-404.09 242.887,-347.87"/>
</g>
<!-- EmailSubscriptionsController -->
<g id="node9" class="node"><title>EmailSubscriptionsController</title>
<polyline fill="none" stroke="black" points="1014.21,-522.172 1173.42,-522.172 "/>
<path fill="none" stroke="black" d="M1173.42,-522.172C1179.42,-522.172 1185.42,-528.172 1185.42,-534.172"/>
<polyline fill="none" stroke="black" points="1185.42,-534.172 1185.42,-625.372 "/>
<path fill="none" stroke="black" d="M1185.42,-625.372C1185.42,-631.372 1179.42,-637.372 1173.42,-637.372"/>
<polyline fill="none" stroke="black" points="1173.42,-637.372 1014.21,-637.372 "/>
<path fill="none" stroke="black" d="M1014.21,-637.372C1008.21,-637.372 1002.21,-631.372 1002.21,-625.372"/>
<polyline fill="none" stroke="black" points="1002.21,-625.372 1002.21,-534.172 "/>
<path fill="none" stroke="black" d="M1002.21,-534.172C1002.21,-528.172 1008.21,-522.172 1014.21,-522.172"/>
<text text-anchor="middle" x="1093.81" y="-619.372" font-family="Times,serif" font-size="14.00">EmailSubscriptionsController</text>
<polyline fill="none" stroke="black" points="1002.21,-612.572 1185.42,-612.572 "/>
<text text-anchor="start" x="1010.21" y="-594.572" font-family="Times,serif" font-size="14.00">create</text>
<polyline fill="none" stroke="black" points="1002.21,-587.772 1185.42,-587.772 "/>
<polyline fill="none" stroke="black" points="1002.21,-563.772 1185.42,-563.772 "/>
<text text-anchor="start" x="1010.21" y="-545.772" font-family="Times,serif" font-size="14.00">_layout</text>
<text text-anchor="start" x="1010.21" y="-528.972" font-family="Times,serif" font-size="14.00">email_subscription_params</text>
</g>
<!-- ApplicationController&#45;&gt;EmailSubscriptionsController -->
<g id="edge14" class="edge"><title>ApplicationController&#45;&gt;EmailSubscriptionsController</title>
<path fill="none" stroke="black" d="M694.374,-629.806C784.977,-618.457 915.289,-602.134 1002.15,-591.253"/>
</g>
<!-- ErrorsController -->
<g id="node10" class="node"><title>ErrorsController</title>
<polyline fill="none" stroke="black" points="158.448,-450.752 242.979,-450.752 "/>
<path fill="none" stroke="black" d="M242.979,-450.752C248.979,-450.752 254.979,-456.752 254.979,-462.752"/>
<polyline fill="none" stroke="black" points="254.979,-462.752 254.979,-553.952 "/>
<path fill="none" stroke="black" d="M254.979,-553.952C254.979,-559.952 248.979,-565.952 242.979,-565.952"/>
<polyline fill="none" stroke="black" points="242.979,-565.952 158.448,-565.952 "/>
<path fill="none" stroke="black" d="M158.448,-565.952C152.448,-565.952 146.448,-559.952 146.448,-553.952"/>
<polyline fill="none" stroke="black" points="146.448,-553.952 146.448,-462.752 "/>
<path fill="none" stroke="black" d="M146.448,-462.752C146.448,-456.752 152.448,-450.752 158.448,-450.752"/>
<text text-anchor="middle" x="200.714" y="-547.952" font-family="Times,serif" font-size="14.00">ErrorsController</text>
<polyline fill="none" stroke="black" points="146.448,-541.152 254.979,-541.152 "/>
<text text-anchor="start" x="154.448" y="-523.152" font-family="Times,serif" font-size="14.00">error_404</text>
<text text-anchor="start" x="154.448" y="-506.352" font-family="Times,serif" font-size="14.00">error_500</text>
<polyline fill="none" stroke="black" points="146.448,-499.552 254.979,-499.552 "/>
<polyline fill="none" stroke="black" points="146.448,-475.552 254.979,-475.552 "/>
<text text-anchor="start" x="154.448" y="-457.552" font-family="Times,serif" font-size="14.00">_layout</text>
</g>
<!-- ApplicationController&#45;&gt;ErrorsController -->
<g id="edge16" class="edge"><title>ApplicationController&#45;&gt;ErrorsController</title>
<path fill="none" stroke="black" d="M486.994,-607.026C412.408,-581.318 314.827,-547.684 255.015,-527.069"/>
</g>
<!-- JobApplicationsController -->
<g id="node11" class="node"><title>JobApplicationsController</title>
<polyline fill="none" stroke="black" points="687.611,-36.4615 873.246,-36.4615 "/>
<path fill="none" stroke="black" d="M873.246,-36.4615C879.246,-36.4615 885.246,-42.4615 885.246,-48.4615"/>
<polyline fill="none" stroke="black" points="885.246,-48.4615 885.246,-257.261 "/>
<path fill="none" stroke="black" d="M885.246,-257.261C885.246,-263.261 879.246,-269.261 873.246,-269.261"/>
<polyline fill="none" stroke="black" points="873.246,-269.261 687.611,-269.261 "/>
<path fill="none" stroke="black" d="M687.611,-269.261C681.611,-269.261 675.611,-263.261 675.611,-257.261"/>
<polyline fill="none" stroke="black" points="675.611,-257.261 675.611,-48.4615 "/>
<path fill="none" stroke="black" d="M675.611,-48.4615C675.611,-42.4615 681.611,-36.4615 687.611,-36.4615"/>
<text text-anchor="middle" x="780.429" y="-251.261" font-family="Times,serif" font-size="14.00">JobApplicationsController</text>
<polyline fill="none" stroke="black" points="675.611,-244.461 885.246,-244.461 "/>
<text text-anchor="start" x="683.611" y="-226.461" font-family="Times,serif" font-size="14.00">_one_time_conditions_valid_214?</text>
<text text-anchor="start" x="683.611" y="-209.661" font-family="Times,serif" font-size="14.00">_one_time_conditions_valid_216?</text>
<text text-anchor="start" x="683.611" y="-192.861" font-family="Times,serif" font-size="14.00">buy</text>
<text text-anchor="start" x="683.611" y="-176.061" font-family="Times,serif" font-size="14.00">index</text>
<text text-anchor="start" x="683.611" y="-159.261" font-family="Times,serif" font-size="14.00">new</text>
<text text-anchor="start" x="683.611" y="-142.461" font-family="Times,serif" font-size="14.00">reject</text>
<text text-anchor="start" x="683.611" y="-125.661" font-family="Times,serif" font-size="14.00">show</text>
<polyline fill="none" stroke="black" points="675.611,-118.861 885.246,-118.861 "/>
<polyline fill="none" stroke="black" points="675.611,-94.8615 885.246,-94.8615 "/>
<text text-anchor="start" x="683.611" y="-76.8615" font-family="Times,serif" font-size="14.00">_layout</text>
<text text-anchor="start" x="683.611" y="-60.0615" font-family="Times,serif" font-size="14.00">authorize_user</text>
<text text-anchor="start" x="683.611" y="-43.2615" font-family="Times,serif" font-size="14.00">load_job</text>
</g>
<!-- ApplicationController&#45;&gt;JobApplicationsController -->
<g id="edge18" class="edge"><title>ApplicationController&#45;&gt;JobApplicationsController</title>
<path fill="none" stroke="black" d="M626.092,-551.497C656.907,-471.905 701.779,-356.006 735.205,-269.669"/>
</g>
<!-- JobsController -->
<g id="node12" class="node"><title>JobsController</title>
<polyline fill="none" stroke="black" points="370.912,-137.012 445.353,-137.012 "/>
<path fill="none" stroke="black" d="M445.353,-137.012C451.353,-137.012 457.353,-143.012 457.353,-149.012"/>
<polyline fill="none" stroke="black" points="457.353,-149.012 457.353,-374.612 "/>
<path fill="none" stroke="black" d="M457.353,-374.612C457.353,-380.612 451.353,-386.612 445.353,-386.612"/>
<polyline fill="none" stroke="black" points="445.353,-386.612 370.912,-386.612 "/>
<path fill="none" stroke="black" d="M370.912,-386.612C364.912,-386.612 358.912,-380.612 358.912,-374.612"/>
<polyline fill="none" stroke="black" points="358.912,-374.612 358.912,-149.012 "/>
<path fill="none" stroke="black" d="M358.912,-149.012C358.912,-143.012 364.912,-137.012 370.912,-137.012"/>
<text text-anchor="middle" x="408.132" y="-368.612" font-family="Times,serif" font-size="14.00">JobsController</text>
<polyline fill="none" stroke="black" points="358.912,-361.812 457.353,-361.812 "/>
<text text-anchor="start" x="366.912" y="-343.812" font-family="Times,serif" font-size="14.00">create</text>
<text text-anchor="start" x="366.912" y="-327.012" font-family="Times,serif" font-size="14.00">destroy</text>
<text text-anchor="start" x="366.912" y="-310.212" font-family="Times,serif" font-size="14.00">edit</text>
<text text-anchor="start" x="366.912" y="-293.412" font-family="Times,serif" font-size="14.00">flag</text>
<text text-anchor="start" x="366.912" y="-276.612" font-family="Times,serif" font-size="14.00">index</text>
<text text-anchor="start" x="366.912" y="-259.812" font-family="Times,serif" font-size="14.00">my</text>
<text text-anchor="start" x="366.912" y="-243.012" font-family="Times,serif" font-size="14.00">new</text>
<text text-anchor="start" x="366.912" y="-226.212" font-family="Times,serif" font-size="14.00">show</text>
<text text-anchor="start" x="366.912" y="-209.412" font-family="Times,serif" font-size="14.00">update</text>
<polyline fill="none" stroke="black" points="358.912,-202.612 457.353,-202.612 "/>
<polyline fill="none" stroke="black" points="358.912,-178.612 457.353,-178.612 "/>
<text text-anchor="start" x="366.912" y="-160.612" font-family="Times,serif" font-size="14.00">_layout</text>
<text text-anchor="start" x="366.912" y="-143.812" font-family="Times,serif" font-size="14.00">job_params</text>
</g>
<!-- ApplicationController&#45;&gt;JobsController -->
<g id="edge20" class="edge"><title>ApplicationController&#45;&gt;JobsController</title>
<path fill="none" stroke="black" d="M547.007,-551.534C520.047,-495.29 485.411,-423.032 457.474,-364.75"/>
</g>
<!-- PagesController -->
<g id="node13" class="node"><title>PagesController</title>
<polyline fill="none" stroke="black" points="88.2707,-843.161 170.478,-843.161 "/>
<path fill="none" stroke="black" d="M170.478,-843.161C176.478,-843.161 182.478,-849.161 182.478,-855.161"/>
<polyline fill="none" stroke="black" points="182.478,-855.161 182.478,-929.561 "/>
<path fill="none" stroke="black" d="M182.478,-929.561C182.478,-935.561 176.478,-941.561 170.478,-941.561"/>
<polyline fill="none" stroke="black" points="170.478,-941.561 88.2707,-941.561 "/>
<path fill="none" stroke="black" d="M88.2707,-941.561C82.2707,-941.561 76.2707,-935.561 76.2707,-929.561"/>
<polyline fill="none" stroke="black" points="76.2707,-929.561 76.2707,-855.161 "/>
<path fill="none" stroke="black" d="M76.2707,-855.161C76.2707,-849.161 82.2707,-843.161 88.2707,-843.161"/>
<text text-anchor="middle" x="129.374" y="-923.561" font-family="Times,serif" font-size="14.00">PagesController</text>
<polyline fill="none" stroke="black" points="76.2707,-916.761 182.478,-916.761 "/>
<text text-anchor="start" x="84.2707" y="-898.761" font-family="Times,serif" font-size="14.00">contact</text>
<polyline fill="none" stroke="black" points="76.2707,-891.961 182.478,-891.961 "/>
<polyline fill="none" stroke="black" points="76.2707,-867.961 182.478,-867.961 "/>
<text text-anchor="start" x="84.2707" y="-849.961" font-family="Times,serif" font-size="14.00">_layout</text>
</g>
<!-- ApplicationController&#45;&gt;PagesController -->
<g id="edge22" class="edge"><title>ApplicationController&#45;&gt;PagesController</title>
<path fill="none" stroke="black" d="M486.919,-698.952C392.453,-750.052 256.796,-823.434 182.691,-863.52"/>
</g>
<!-- PaymentProfilesController -->
<g id="node14" class="node"><title>PaymentProfilesController</title>
<polyline fill="none" stroke="black" points="990.165,-703.322 1131.49,-703.322 "/>
<path fill="none" stroke="black" d="M1131.49,-703.322C1137.49,-703.322 1143.49,-709.322 1143.49,-715.322"/>
<polyline fill="none" stroke="black" points="1143.49,-715.322 1143.49,-856.922 "/>
<path fill="none" stroke="black" d="M1143.49,-856.922C1143.49,-862.922 1137.49,-868.922 1131.49,-868.922"/>
<polyline fill="none" stroke="black" points="1131.49,-868.922 990.165,-868.922 "/>
<path fill="none" stroke="black" d="M990.165,-868.922C984.165,-868.922 978.165,-862.922 978.165,-856.922"/>
<polyline fill="none" stroke="black" points="978.165,-856.922 978.165,-715.322 "/>
<path fill="none" stroke="black" d="M978.165,-715.322C978.165,-709.322 984.165,-703.322 990.165,-703.322"/>
<text text-anchor="middle" x="1060.83" y="-850.922" font-family="Times,serif" font-size="14.00">PaymentProfilesController</text>
<polyline fill="none" stroke="black" points="978.165,-844.122 1143.49,-844.122 "/>
<text text-anchor="start" x="986.165" y="-826.122" font-family="Times,serif" font-size="14.00">create</text>
<text text-anchor="start" x="986.165" y="-809.322" font-family="Times,serif" font-size="14.00">destroy</text>
<text text-anchor="start" x="986.165" y="-792.522" font-family="Times,serif" font-size="14.00">new</text>
<polyline fill="none" stroke="black" points="978.165,-785.722 1143.49,-785.722 "/>
<polyline fill="none" stroke="black" points="978.165,-761.722 1143.49,-761.722 "/>
<text text-anchor="start" x="986.165" y="-743.722" font-family="Times,serif" font-size="14.00">_layout</text>
<text text-anchor="start" x="986.165" y="-726.922" font-family="Times,serif" font-size="14.00">buy_job_application</text>
<text text-anchor="start" x="986.165" y="-710.122" font-family="Times,serif" font-size="14.00">payment_profile_params</text>
</g>
<!-- ApplicationController&#45;&gt;PaymentProfilesController -->
<g id="edge24" class="edge"><title>ApplicationController&#45;&gt;PaymentProfilesController</title>
<path fill="none" stroke="black" d="M694.491,-674.42C779.795,-700.43 899.072,-736.8 978.062,-760.885"/>
</g>
<!-- ResumesController -->
<g id="node15" class="node"><title>ResumesController</title>
<polyline fill="none" stroke="black" points="932.763,-877.922 1032.86,-877.922 "/>
<path fill="none" stroke="black" d="M1032.86,-877.922C1038.86,-877.922 1044.86,-883.922 1044.86,-889.922"/>
<polyline fill="none" stroke="black" points="1044.86,-889.922 1044.86,-1098.72 "/>
<path fill="none" stroke="black" d="M1044.86,-1098.72C1044.86,-1104.72 1038.86,-1110.72 1032.86,-1110.72"/>
<polyline fill="none" stroke="black" points="1032.86,-1110.72 932.763,-1110.72 "/>
<path fill="none" stroke="black" d="M932.763,-1110.72C926.763,-1110.72 920.763,-1104.72 920.763,-1098.72"/>
<polyline fill="none" stroke="black" points="920.763,-1098.72 920.763,-889.922 "/>
<path fill="none" stroke="black" d="M920.763,-889.922C920.763,-883.922 926.763,-877.922 932.763,-877.922"/>
<text text-anchor="middle" x="982.811" y="-1092.72" font-family="Times,serif" font-size="14.00">ResumesController</text>
<polyline fill="none" stroke="black" points="920.763,-1085.92 1044.86,-1085.92 "/>
<text text-anchor="start" x="928.763" y="-1067.92" font-family="Times,serif" font-size="14.00">add_video</text>
<text text-anchor="start" x="928.763" y="-1051.12" font-family="Times,serif" font-size="14.00">create</text>
<text text-anchor="start" x="928.763" y="-1034.32" font-family="Times,serif" font-size="14.00">edit</text>
<text text-anchor="start" x="928.763" y="-1017.52" font-family="Times,serif" font-size="14.00">new</text>
<text text-anchor="start" x="928.763" y="-1000.72" font-family="Times,serif" font-size="14.00">show</text>
<text text-anchor="start" x="928.763" y="-983.922" font-family="Times,serif" font-size="14.00">update</text>
<text text-anchor="start" x="928.763" y="-967.122" font-family="Times,serif" font-size="14.00">update_video</text>
<polyline fill="none" stroke="black" points="920.763,-960.322 1044.86,-960.322 "/>
<polyline fill="none" stroke="black" points="920.763,-936.322 1044.86,-936.322 "/>
<text text-anchor="start" x="928.763" y="-918.322" font-family="Times,serif" font-size="14.00">_layout</text>
<text text-anchor="start" x="928.763" y="-901.522" font-family="Times,serif" font-size="14.00">load_resume</text>
<text text-anchor="start" x="928.763" y="-884.722" font-family="Times,serif" font-size="14.00">resume_params</text>
</g>
<!-- ApplicationController&#45;&gt;ResumesController -->
<g id="edge26" class="edge"><title>ApplicationController&#45;&gt;ResumesController</title>
<path fill="none" stroke="black" d="M692.479,-734.002C764.743,-798.796 859.451,-883.713 920.715,-938.644"/>
</g>
<!-- ScamReportsController -->
<g id="node16" class="node"><title>ScamReportsController</title>
<polyline fill="none" stroke="black" points="578.327,-1093.07 702.528,-1093.07 "/>
<path fill="none" stroke="black" d="M702.528,-1093.07C708.528,-1093.07 714.528,-1099.07 714.528,-1105.07"/>
<polyline fill="none" stroke="black" points="714.528,-1105.07 714.528,-1213.07 "/>
<path fill="none" stroke="black" d="M714.528,-1213.07C714.528,-1219.07 708.528,-1225.07 702.528,-1225.07"/>
<polyline fill="none" stroke="black" points="702.528,-1225.07 578.327,-1225.07 "/>
<path fill="none" stroke="black" d="M578.327,-1225.07C572.327,-1225.07 566.327,-1219.07 566.327,-1213.07"/>
<polyline fill="none" stroke="black" points="566.327,-1213.07 566.327,-1105.07 "/>
<path fill="none" stroke="black" d="M566.327,-1105.07C566.327,-1099.07 572.327,-1093.07 578.327,-1093.07"/>
<text text-anchor="middle" x="640.427" y="-1207.07" font-family="Times,serif" font-size="14.00">ScamReportsController</text>
<polyline fill="none" stroke="black" points="566.327,-1200.27 714.528,-1200.27 "/>
<text text-anchor="start" x="574.327" y="-1182.27" font-family="Times,serif" font-size="14.00">create</text>
<text text-anchor="start" x="574.327" y="-1165.47" font-family="Times,serif" font-size="14.00">new</text>
<polyline fill="none" stroke="black" points="566.327,-1158.67 714.528,-1158.67 "/>
<polyline fill="none" stroke="black" points="566.327,-1134.67 714.528,-1134.67 "/>
<text text-anchor="start" x="574.327" y="-1116.67" font-family="Times,serif" font-size="14.00">_layout</text>
<text text-anchor="start" x="574.327" y="-1099.87" font-family="Times,serif" font-size="14.00">scam_report_params</text>
</g>
<!-- ApplicationController&#45;&gt;ScamReportsController -->
<g id="edge28" class="edge"><title>ApplicationController&#45;&gt;ScamReportsController</title>
<path fill="none" stroke="black" d="M599.544,-734.196C609.437,-837.012 625.266,-1001.51 634.043,-1092.72"/>
</g>
<!-- UsersController -->
<g id="node18" class="node"><title>UsersController</title>
<polyline fill="none" stroke="black" points="768.399,-333.908 891.033,-333.908 "/>
<path fill="none" stroke="black" d="M891.033,-333.908C897.033,-333.908 903.033,-339.908 903.033,-345.908"/>
<polyline fill="none" stroke="black" points="903.033,-345.908 903.033,-453.908 "/>
<path fill="none" stroke="black" d="M903.033,-453.908C903.033,-459.908 897.033,-465.908 891.033,-465.908"/>
<polyline fill="none" stroke="black" points="891.033,-465.908 768.399,-465.908 "/>
<path fill="none" stroke="black" d="M768.399,-465.908C762.399,-465.908 756.399,-459.908 756.399,-453.908"/>
<polyline fill="none" stroke="black" points="756.399,-453.908 756.399,-345.908 "/>
<path fill="none" stroke="black" d="M756.399,-345.908C756.399,-339.908 762.399,-333.908 768.399,-333.908"/>
<text text-anchor="middle" x="829.716" y="-447.908" font-family="Times,serif" font-size="14.00">UsersController</text>
<polyline fill="none" stroke="black" points="756.399,-441.108 903.033,-441.108 "/>
<text text-anchor="start" x="764.399" y="-423.108" font-family="Times,serif" font-size="14.00">edit</text>
<text text-anchor="start" x="764.399" y="-406.308" font-family="Times,serif" font-size="14.00">update</text>
<polyline fill="none" stroke="black" points="756.399,-399.508 903.033,-399.508 "/>
<polyline fill="none" stroke="black" points="756.399,-375.508 903.033,-375.508 "/>
<text text-anchor="start" x="764.399" y="-357.508" font-family="Times,serif" font-size="14.00">_layout</text>
<text text-anchor="start" x="764.399" y="-340.708" font-family="Times,serif" font-size="14.00">user_password_params</text>
</g>
<!-- ApplicationController&#45;&gt;UsersController -->
<g id="edge30" class="edge"><title>ApplicationController&#45;&gt;UsersController</title>
<path fill="none" stroke="black" d="M680.751,-551.311C708.667,-522.938 738.874,-492.237 764.742,-465.945"/>
</g>
<!-- ValidationRequestsController -->
<g id="node19" class="node"><title>ValidationRequestsController</title>
<polyline fill="none" stroke="black" points="952.014,-255.838 1109.66,-255.838 "/>
<path fill="none" stroke="black" d="M1109.66,-255.838C1115.66,-255.838 1121.66,-261.838 1121.66,-267.838"/>
<polyline fill="none" stroke="black" points="1121.66,-267.838 1121.66,-392.638 "/>
<path fill="none" stroke="black" d="M1121.66,-392.638C1121.66,-398.638 1115.66,-404.638 1109.66,-404.638"/>
<polyline fill="none" stroke="black" points="1109.66,-404.638 952.014,-404.638 "/>
<path fill="none" stroke="black" d="M952.014,-404.638C946.014,-404.638 940.014,-398.638 940.014,-392.638"/>
<polyline fill="none" stroke="black" points="940.014,-392.638 940.014,-267.838 "/>
<path fill="none" stroke="black" d="M940.014,-267.838C940.014,-261.838 946.014,-255.838 952.014,-255.838"/>
<text text-anchor="middle" x="1030.83" y="-386.638" font-family="Times,serif" font-size="14.00">ValidationRequestsController</text>
<polyline fill="none" stroke="black" points="940.014,-379.838 1121.66,-379.838 "/>
<text text-anchor="start" x="948.014" y="-361.838" font-family="Times,serif" font-size="14.00">create</text>
<text text-anchor="start" x="948.014" y="-345.038" font-family="Times,serif" font-size="14.00">new</text>
<polyline fill="none" stroke="black" points="940.014,-338.238 1121.66,-338.238 "/>
<polyline fill="none" stroke="black" points="940.014,-314.238 1121.66,-314.238 "/>
<text text-anchor="start" x="948.014" y="-296.238" font-family="Times,serif" font-size="14.00">_layout</text>
<text text-anchor="start" x="948.014" y="-279.438" font-family="Times,serif" font-size="14.00">validation_request_params</text>
<text text-anchor="start" x="948.014" y="-262.638" font-family="Times,serif" font-size="14.00">verify_has_account</text>
</g>
<!-- ApplicationController&#45;&gt;ValidationRequestsController -->
<g id="edge32" class="edge"><title>ApplicationController&#45;&gt;ValidationRequestsController</title>
<path fill="none" stroke="black" d="M694.525,-596.681C758.825,-565.524 841.247,-520.738 906.233,-469.108 929.82,-450.369 952.713,-426.918 972.304,-404.652"/>
</g>
<!-- Users::RegistrationsController -->
<g id="node17" class="node"><title>Users::RegistrationsController</title>
<polyline fill="none" stroke="black" points="1166.89,-1001.5 1329.98,-1001.5 "/>
<path fill="none" stroke="black" d="M1329.98,-1001.5C1335.98,-1001.5 1341.98,-1007.5 1341.98,-1013.5"/>
<polyline fill="none" stroke="black" points="1341.98,-1013.5 1341.98,-1103.9 "/>
<path fill="none" stroke="black" d="M1341.98,-1103.9C1341.98,-1109.9 1335.98,-1115.9 1329.98,-1115.9"/>
<polyline fill="none" stroke="black" points="1329.98,-1115.9 1166.89,-1115.9 "/>
<path fill="none" stroke="black" d="M1166.89,-1115.9C1160.89,-1115.9 1154.89,-1109.9 1154.89,-1103.9"/>
<polyline fill="none" stroke="black" points="1154.89,-1103.9 1154.89,-1013.5 "/>
<path fill="none" stroke="black" d="M1154.89,-1013.5C1154.89,-1007.5 1160.89,-1001.5 1166.89,-1001.5"/>
<text text-anchor="middle" x="1248.44" y="-1097.9" font-family="Times,serif" font-size="14.00">Users::RegistrationsController</text>
<polyline fill="none" stroke="black" points="1154.89,-1091.1 1341.98,-1091.1 "/>
<polyline fill="none" stroke="black" points="1154.89,-1067.1 1341.98,-1067.1 "/>
<polyline fill="none" stroke="black" points="1154.89,-1043.1 1341.98,-1043.1 "/>
<text text-anchor="start" x="1162.89" y="-1025.1" font-family="Times,serif" font-size="14.00">_layout</text>
<text text-anchor="start" x="1162.89" y="-1008.3" font-family="Times,serif" font-size="14.00">resource_params</text>
</g>
</g>
</svg>
