<?xml version="1.0" encoding="UTF-8" standalone="no"?>
<!DOCTYPE svg PUBLIC "-//W3C//DTD SVG 1.1//EN"
 "http://www.w3.org/Graphics/SVG/1.1/DTD/svg11.dtd">
<!-- Generated by graphviz version 2.28.0 (20130409.2258)
 -->
<!-- Title: models_diagram Pages: 1 -->
<svg width="1585pt" height="1250pt"
 viewBox="0.00 0.00 1585.00 1250.00" xmlns="http://www.w3.org/2000/svg" xmlns:xlink="http://www.w3.org/1999/xlink">
<g id="graph1" class="graph" transform="scale(1 1) rotate(0) translate(4 1246)">
<title>models_diagram</title>
<polygon fill="white" stroke="white" points="-4,5 -4,-1246 1582,-1246 1582,5 -4,5"/>
<!-- _diagram_info -->
<g id="node1" class="node"><title>_diagram_info</title>
<text text-anchor="start" x="7.31226" y="-1158" font-family="Times,serif" font-size="13.00">Models diagram</text>
<text text-anchor="start" x="7.31226" y="-1142.4" font-family="Times,serif" font-size="13.00">Date: Apr 26 2013 &#45; 15:56</text>
<text text-anchor="start" x="7.31226" y="-1126.8" font-family="Times,serif" font-size="13.00">Migration version: 20130425060910</text>
<text text-anchor="start" x="7.31226" y="-1111.2" font-family="Times,serif" font-size="13.00">Generated by RailRoady 1.1.0</text>
<text text-anchor="start" x="7.31226" y="-1095.6" font-family="Times,serif" font-size="13.00">http://railroady.prestonlee.com</text>
</g>
<!-- Ability -->
<g id="node2" class="node"><title>Ability</title>
<polygon fill="none" stroke="black" points="225.166,-1107.2 225.166,-1156.8 280.834,-1156.8 280.834,-1107.2 225.166,-1107.2"/>
<text text-anchor="middle" x="253" y="-1138.8" font-family="Times,serif" font-size="14.00">Ability</text>
<polyline fill="none" stroke="black" points="225.166,-1132 280.834,-1132 "/>
<text text-anchor="middle" x="253" y="-1114" font-family="Times,serif" font-size="14.00"> </text>
</g>
<!-- Account -->
<g id="node3" class="node"><title>Account</title>
<polyline fill="none" stroke="black" points="311.05,-1023.2 430.95,-1023.2 "/>
<path fill="none" stroke="black" d="M430.95,-1023.2C436.95,-1023.2 442.95,-1029.2 442.95,-1035.2"/>
<polyline fill="none" stroke="black" points="442.95,-1035.2 442.95,-1228.8 "/>
<path fill="none" stroke="black" d="M442.95,-1228.8C442.95,-1234.8 436.95,-1240.8 430.95,-1240.8"/>
<polyline fill="none" stroke="black" points="430.95,-1240.8 311.05,-1240.8 "/>
<path fill="none" stroke="black" d="M311.05,-1240.8C305.05,-1240.8 299.05,-1234.8 299.05,-1228.8"/>
<polyline fill="none" stroke="black" points="299.05,-1228.8 299.05,-1035.2 "/>
<path fill="none" stroke="black" d="M299.05,-1035.2C299.05,-1029.2 305.05,-1023.2 311.05,-1023.2"/>
<text text-anchor="middle" x="371" y="-1222.8" font-family="Times,serif" font-size="14.00">Account</text>
<polyline fill="none" stroke="black" points="299.05,-1216 442.95,-1216 "/>
<text text-anchor="start" x="307.05" y="-1198" font-family="Times,serif" font-size="14.00">id :integer</text>
<text text-anchor="start" x="307.05" y="-1181.2" font-family="Times,serif" font-size="14.00">name :string</text>
<text text-anchor="start" x="307.05" y="-1164.4" font-family="Times,serif" font-size="14.00">website :string</text>
<text text-anchor="start" x="307.05" y="-1147.6" font-family="Times,serif" font-size="14.00">phone :string</text>
<text text-anchor="start" x="307.05" y="-1130.8" font-family="Times,serif" font-size="14.00">created_at :datetime</text>
<text text-anchor="start" x="307.05" y="-1114" font-family="Times,serif" font-size="14.00">updated_at :datetime</text>
<text text-anchor="start" x="307.05" y="-1097.2" font-family="Times,serif" font-size="14.00">credits :integer</text>
<text text-anchor="start" x="307.05" y="-1080.4" font-family="Times,serif" font-size="14.00">logo :string</text>
<text text-anchor="start" x="307.05" y="-1063.6" font-family="Times,serif" font-size="14.00">slug :string</text>
<text text-anchor="start" x="307.05" y="-1046.8" font-family="Times,serif" font-size="14.00">safe_job_seal :boolean</text>
<text text-anchor="start" x="307.05" y="-1030" font-family="Times,serif" font-size="14.00">active :boolean</text>
</g>
<!-- ApplicantAccess -->
<g id="node5" class="node"><title>ApplicantAccess</title>
<polyline fill="none" stroke="black" points="174.381,-67.6 317.619,-67.6 "/>
<path fill="none" stroke="black" d="M317.619,-67.6C323.619,-67.6 329.619,-73.6 329.619,-79.6"/>
<polyline fill="none" stroke="black" points="329.619,-79.6 329.619,-172.4 "/>
<path fill="none" stroke="black" d="M329.619,-172.4C329.619,-178.4 323.619,-184.4 317.619,-184.4"/>
<polyline fill="none" stroke="black" points="317.619,-184.4 174.381,-184.4 "/>
<path fill="none" stroke="black" d="M174.381,-184.4C168.381,-184.4 162.381,-178.4 162.381,-172.4"/>
<polyline fill="none" stroke="black" points="162.381,-172.4 162.381,-79.6 "/>
<path fill="none" stroke="black" d="M162.381,-79.6C162.381,-73.6 168.381,-67.6 174.381,-67.6"/>
<text text-anchor="middle" x="246" y="-166.4" font-family="Times,serif" font-size="14.00">ApplicantAccess</text>
<polyline fill="none" stroke="black" points="162.381,-159.6 329.619,-159.6 "/>
<text text-anchor="start" x="170.381" y="-141.6" font-family="Times,serif" font-size="14.00">id :integer</text>
<text text-anchor="start" x="170.381" y="-124.8" font-family="Times,serif" font-size="14.00">job_application_id :integer</text>
<text text-anchor="start" x="170.381" y="-108" font-family="Times,serif" font-size="14.00">account_id :integer</text>
<text text-anchor="start" x="170.381" y="-91.2" font-family="Times,serif" font-size="14.00">created_at :datetime</text>
<text text-anchor="start" x="170.381" y="-74.4" font-family="Times,serif" font-size="14.00">updated_at :datetime</text>
</g>
<!-- Account&#45;&gt;ApplicantAccess -->
<g id="edge6" class="edge"><title>Account&#45;&gt;ApplicantAccess</title>
<path fill="none" stroke="#a043db" d="M292.501,-1024.47C291.344,-1023.63 290.177,-1022.8 289,-1022 236.785,-986.415 190.246,-1034.3 152,-984 -30.8716,-743.501 133.084,-349.451 210.621,-193.521"/>
<ellipse fill="none" stroke="#a043db" cx="295.856" cy="-1027.08" rx="4.00002" ry="4.00002"/>
<polygon fill="#a043db" stroke="#a043db" points="210.667,-193.429 219.171,-186.505 212.908,-188.959 215.148,-184.489 215.148,-184.489 215.148,-184.489 212.908,-188.959 211.125,-182.472 210.667,-193.429 210.667,-193.429"/>
</g>
<!-- Job -->
<g id="node12" class="node"><title>Job</title>
<polyline fill="none" stroke="black" points="410.55,-715.4 579.45,-715.4 "/>
<path fill="none" stroke="black" d="M579.45,-715.4C585.45,-715.4 591.45,-721.4 591.45,-727.4"/>
<polyline fill="none" stroke="black" points="591.45,-727.4 591.45,-954.6 "/>
<path fill="none" stroke="black" d="M591.45,-954.6C591.45,-960.6 585.45,-966.6 579.45,-966.6"/>
<polyline fill="none" stroke="black" points="579.45,-966.6 410.55,-966.6 "/>
<path fill="none" stroke="black" d="M410.55,-966.6C404.55,-966.6 398.55,-960.6 398.55,-954.6"/>
<polyline fill="none" stroke="black" points="398.55,-954.6 398.55,-727.4 "/>
<path fill="none" stroke="black" d="M398.55,-727.4C398.55,-721.4 404.55,-715.4 410.55,-715.4"/>
<text text-anchor="middle" x="495" y="-948.6" font-family="Times,serif" font-size="14.00">Job</text>
<polyline fill="none" stroke="black" points="398.55,-941.8 591.45,-941.8 "/>
<text text-anchor="start" x="406.55" y="-923.8" font-family="Times,serif" font-size="14.00">id :integer</text>
<text text-anchor="start" x="406.55" y="-907" font-family="Times,serif" font-size="14.00">title :string</text>
<text text-anchor="start" x="406.55" y="-890.2" font-family="Times,serif" font-size="14.00">description :text</text>
<text text-anchor="start" x="406.55" y="-873.4" font-family="Times,serif" font-size="14.00">about_company :text</text>
<text text-anchor="start" x="406.55" y="-856.6" font-family="Times,serif" font-size="14.00">created_at :datetime</text>
<text text-anchor="start" x="406.55" y="-839.8" font-family="Times,serif" font-size="14.00">updated_at :datetime</text>
<text text-anchor="start" x="406.55" y="-823" font-family="Times,serif" font-size="14.00">account_id :integer</text>
<text text-anchor="start" x="406.55" y="-806.2" font-family="Times,serif" font-size="14.00">latitude :float</text>
<text text-anchor="start" x="406.55" y="-789.4" font-family="Times,serif" font-size="14.00">longitude :float</text>
<text text-anchor="start" x="406.55" y="-772.6" font-family="Times,serif" font-size="14.00">address :string</text>
<text text-anchor="start" x="406.55" y="-755.8" font-family="Times,serif" font-size="14.00">active :boolean</text>
<text text-anchor="start" x="406.55" y="-739" font-family="Times,serif" font-size="14.00">job_applications_count :integer</text>
<text text-anchor="start" x="406.55" y="-722.2" font-family="Times,serif" font-size="14.00">category_id :integer</text>
</g>
<!-- Account&#45;&gt;Job -->
<g id="edge2" class="edge"><title>Account&#45;&gt;Job</title>
<path fill="none" stroke="#535ff6" d="M420.677,-1015.22C426.162,-1002.44 431.782,-989.34 437.353,-976.354"/>
<ellipse fill="none" stroke="#535ff6" cx="418.927" cy="-1019.3" rx="4.00001" ry="4.00001"/>
<polygon fill="#535ff6" stroke="#535ff6" points="437.457,-976.113 445.535,-968.697 439.428,-971.518 441.4,-966.923 441.4,-966.923 441.4,-966.923 439.428,-971.518 437.264,-965.149 437.457,-976.113 437.457,-976.113"/>
</g>
<!-- JobApplication -->
<g id="node13" class="node"><title>JobApplication</title>
<polyline fill="none" stroke="black" points="379.495,-416.2 488.505,-416.2 "/>
<path fill="none" stroke="black" d="M488.505,-416.2C494.505,-416.2 500.505,-422.2 500.505,-428.2"/>
<polyline fill="none" stroke="black" points="500.505,-428.2 500.505,-537.8 "/>
<path fill="none" stroke="black" d="M500.505,-537.8C500.505,-543.8 494.505,-549.8 488.505,-549.8"/>
<polyline fill="none" stroke="black" points="488.505,-549.8 379.495,-549.8 "/>
<path fill="none" stroke="black" d="M379.495,-549.8C373.495,-549.8 367.495,-543.8 367.495,-537.8"/>
<polyline fill="none" stroke="black" points="367.495,-537.8 367.495,-428.2 "/>
<path fill="none" stroke="black" d="M367.495,-428.2C367.495,-422.2 373.495,-416.2 379.495,-416.2"/>
<text text-anchor="middle" x="434" y="-531.8" font-family="Times,serif" font-size="14.00">JobApplication</text>
<polyline fill="none" stroke="black" points="367.495,-525 500.505,-525 "/>
<text text-anchor="start" x="375.495" y="-507" font-family="Times,serif" font-size="14.00">id :integer</text>
<text text-anchor="start" x="375.495" y="-490.2" font-family="Times,serif" font-size="14.00">job_id :integer</text>
<text text-anchor="start" x="375.495" y="-473.4" font-family="Times,serif" font-size="14.00">user_id :integer</text>
<text text-anchor="start" x="375.495" y="-456.6" font-family="Times,serif" font-size="14.00">status :string</text>
<text text-anchor="start" x="375.495" y="-439.8" font-family="Times,serif" font-size="14.00">created_at :datetime</text>
<text text-anchor="start" x="375.495" y="-423" font-family="Times,serif" font-size="14.00">updated_at :datetime</text>
</g>
<!-- Account&#45;&gt;JobApplication -->
<g id="edge8" class="edge"><title>Account&#45;&gt;JobApplication</title>
<path fill="none" stroke="#30fcf7" d="M371.132,-1012.74C372.456,-925.463 376.868,-803.95 390,-698 395.733,-651.75 406.098,-600.599 415.329,-559.906"/>
<polygon fill="#30fcf7" stroke="#30fcf7" points="371.129,-1012.95 366.489,-1022.88 371.059,-1017.95 370.989,-1022.95 370.989,-1022.95 370.989,-1022.95 371.059,-1017.95 375.489,-1023.01 371.129,-1012.95 371.129,-1012.95"/>
<polygon fill="#30fcf7" stroke="#30fcf7" points="415.351,-559.809 421.972,-551.068 416.468,-554.936 417.586,-550.062 417.586,-550.062 417.586,-550.062 416.468,-554.936 413.2,-549.056 415.351,-559.809 415.351,-559.809"/>
</g>
<!-- PaymentProfile -->
<g id="node14" class="node"><title>PaymentProfile</title>
<polyline fill="none" stroke="black" points="172.598,-749 331.402,-749 "/>
<path fill="none" stroke="black" d="M331.402,-749C337.402,-749 343.402,-755 343.402,-761"/>
<polyline fill="none" stroke="black" points="343.402,-761 343.402,-921 "/>
<path fill="none" stroke="black" d="M343.402,-921C343.402,-927 337.402,-933 331.402,-933"/>
<polyline fill="none" stroke="black" points="331.402,-933 172.598,-933 "/>
<path fill="none" stroke="black" d="M172.598,-933C166.598,-933 160.598,-927 160.598,-921"/>
<polyline fill="none" stroke="black" points="160.598,-921 160.598,-761 "/>
<path fill="none" stroke="black" d="M160.598,-761C160.598,-755 166.598,-749 172.598,-749"/>
<text text-anchor="middle" x="252" y="-915" font-family="Times,serif" font-size="14.00">PaymentProfile</text>
<polyline fill="none" stroke="black" points="160.598,-908.2 343.402,-908.2 "/>
<text text-anchor="start" x="168.598" y="-890.2" font-family="Times,serif" font-size="14.00">id :integer</text>
<text text-anchor="start" x="168.598" y="-873.4" font-family="Times,serif" font-size="14.00">account_id :integer</text>
<text text-anchor="start" x="168.598" y="-856.6" font-family="Times,serif" font-size="14.00">stripe_customer_token :string</text>
<text text-anchor="start" x="168.598" y="-839.8" font-family="Times,serif" font-size="14.00">nickname :string</text>
<text text-anchor="start" x="168.598" y="-823" font-family="Times,serif" font-size="14.00">expiration :string</text>
<text text-anchor="start" x="168.598" y="-806.2" font-family="Times,serif" font-size="14.00">cc_number_preview :string</text>
<text text-anchor="start" x="168.598" y="-789.4" font-family="Times,serif" font-size="14.00">created_at :datetime</text>
<text text-anchor="start" x="168.598" y="-772.6" font-family="Times,serif" font-size="14.00">updated_at :datetime</text>
<text text-anchor="start" x="168.598" y="-755.8" font-family="Times,serif" font-size="14.00">status :string</text>
</g>
<!-- Account&#45;&gt;PaymentProfile -->
<g id="edge10" class="edge"><title>Account&#45;&gt;PaymentProfile</title>
<path fill="none" stroke="#36e4ca" d="M323.37,-1015.33C313.457,-991.252 303.086,-966.066 293.419,-942.588"/>
<ellipse fill="none" stroke="#36e4ca" cx="324.997" cy="-1019.28" rx="4.00001" ry="4.00001"/>
<polygon fill="#36e4ca" stroke="#36e4ca" points="293.417,-942.583 293.77,-931.623 291.513,-937.959 289.609,-933.336 289.609,-933.336 289.609,-933.336 291.513,-937.959 285.448,-935.049 293.417,-942.583 293.417,-942.583"/>
</g>
<!-- User -->
<g id="node19" class="node"><title>User</title>
<polyline fill="none" stroke="black" points="621.722,-698.6 802.278,-698.6 "/>
<path fill="none" stroke="black" d="M802.278,-698.6C808.278,-698.6 814.278,-704.6 814.278,-710.6"/>
<polyline fill="none" stroke="black" points="814.278,-710.6 814.278,-971.4 "/>
<path fill="none" stroke="black" d="M814.278,-971.4C814.278,-977.4 808.278,-983.4 802.278,-983.4"/>
<polyline fill="none" stroke="black" points="802.278,-983.4 621.722,-983.4 "/>
<path fill="none" stroke="black" d="M621.722,-983.4C615.722,-983.4 609.722,-977.4 609.722,-971.4"/>
<polyline fill="none" stroke="black" points="609.722,-971.4 609.722,-710.6 "/>
<path fill="none" stroke="black" d="M609.722,-710.6C609.722,-704.6 615.722,-698.6 621.722,-698.6"/>
<text text-anchor="middle" x="712" y="-965.4" font-family="Times,serif" font-size="14.00">User</text>
<polyline fill="none" stroke="black" points="609.722,-958.6 814.278,-958.6 "/>
<text text-anchor="start" x="617.722" y="-940.6" font-family="Times,serif" font-size="14.00">id :integer</text>
<text text-anchor="start" x="617.722" y="-923.8" font-family="Times,serif" font-size="14.00">email :string</text>
<text text-anchor="start" x="617.722" y="-907" font-family="Times,serif" font-size="14.00">encrypted_password :string</text>
<text text-anchor="start" x="617.722" y="-890.2" font-family="Times,serif" font-size="14.00">reset_password_token :string</text>
<text text-anchor="start" x="617.722" y="-873.4" font-family="Times,serif" font-size="14.00">reset_password_sent_at :datetime</text>
<text text-anchor="start" x="617.722" y="-856.6" font-family="Times,serif" font-size="14.00">remember_created_at :datetime</text>
<text text-anchor="start" x="617.722" y="-839.8" font-family="Times,serif" font-size="14.00">sign_in_count :integer</text>
<text text-anchor="start" x="617.722" y="-823" font-family="Times,serif" font-size="14.00">current_sign_in_at :datetime</text>
<text text-anchor="start" x="617.722" y="-806.2" font-family="Times,serif" font-size="14.00">last_sign_in_at :datetime</text>
<text text-anchor="start" x="617.722" y="-789.4" font-family="Times,serif" font-size="14.00">current_sign_in_ip :string</text>
<text text-anchor="start" x="617.722" y="-772.6" font-family="Times,serif" font-size="14.00">last_sign_in_ip :string</text>
<text text-anchor="start" x="617.722" y="-755.8" font-family="Times,serif" font-size="14.00">created_at :datetime</text>
<text text-anchor="start" x="617.722" y="-739" font-family="Times,serif" font-size="14.00">updated_at :datetime</text>
<text text-anchor="start" x="617.722" y="-722.2" font-family="Times,serif" font-size="14.00">account_id :integer</text>
<text text-anchor="start" x="617.722" y="-705.4" font-family="Times,serif" font-size="14.00">admin :boolean</text>
</g>
<!-- Account&#45;&gt;User -->
<g id="edge4" class="edge"><title>Account&#45;&gt;User</title>
<path fill="none" stroke="#5c073c" d="M450.192,-1088.97C496.534,-1062.3 554.655,-1025.14 600,-984 600.814,-983.262 601.626,-982.517 602.438,-981.766"/>
<ellipse fill="none" stroke="#5c073c" cx="446.625" cy="-1091" rx="4.00002" ry="4.00002"/>
<polygon fill="#5c073c" stroke="#5c073c" points="602.454,-981.75 612.799,-978.113 606.075,-978.302 609.696,-974.854 609.696,-974.854 609.696,-974.854 606.075,-978.302 606.593,-971.595 602.454,-981.75 602.454,-981.75"/>
</g>
<!-- Address -->
<g id="node4" class="node"><title>Address</title>
<polyline fill="none" stroke="black" points="471.157,-0.4 598.843,-0.4 "/>
<path fill="none" stroke="black" d="M598.843,-0.4C604.843,-0.4 610.843,-6.4 610.843,-12.4"/>
<polyline fill="none" stroke="black" points="610.843,-12.4 610.843,-239.6 "/>
<path fill="none" stroke="black" d="M610.843,-239.6C610.843,-245.6 604.843,-251.6 598.843,-251.6"/>
<polyline fill="none" stroke="black" points="598.843,-251.6 471.157,-251.6 "/>
<path fill="none" stroke="black" d="M471.157,-251.6C465.157,-251.6 459.157,-245.6 459.157,-239.6"/>
<polyline fill="none" stroke="black" points="459.157,-239.6 459.157,-12.4 "/>
<path fill="none" stroke="black" d="M459.157,-12.4C459.157,-6.4 465.157,-0.4 471.157,-0.4"/>
<text text-anchor="middle" x="535" y="-233.6" font-family="Times,serif" font-size="14.00">Address</text>
<polyline fill="none" stroke="black" points="459.157,-226.8 610.843,-226.8 "/>
<text text-anchor="start" x="467.157" y="-208.8" font-family="Times,serif" font-size="14.00">id :integer</text>
<text text-anchor="start" x="467.157" y="-192" font-family="Times,serif" font-size="14.00">address_1 :string</text>
<text text-anchor="start" x="467.157" y="-175.2" font-family="Times,serif" font-size="14.00">address_2 :string</text>
<text text-anchor="start" x="467.157" y="-158.4" font-family="Times,serif" font-size="14.00">city :string</text>
<text text-anchor="start" x="467.157" y="-141.6" font-family="Times,serif" font-size="14.00">state :string</text>
<text text-anchor="start" x="467.157" y="-124.8" font-family="Times,serif" font-size="14.00">zip :string</text>
<text text-anchor="start" x="467.157" y="-108" font-family="Times,serif" font-size="14.00">country_id :string</text>
<text text-anchor="start" x="467.157" y="-91.2" font-family="Times,serif" font-size="14.00">latitude :float</text>
<text text-anchor="start" x="467.157" y="-74.4" font-family="Times,serif" font-size="14.00">longitude :float</text>
<text text-anchor="start" x="467.157" y="-57.6" font-family="Times,serif" font-size="14.00">addressable_type :string</text>
<text text-anchor="start" x="467.157" y="-40.8" font-family="Times,serif" font-size="14.00">addressable_id :integer</text>
<text text-anchor="start" x="467.157" y="-24" font-family="Times,serif" font-size="14.00">created_at :datetime</text>
<text text-anchor="start" x="467.157" y="-7.2" font-family="Times,serif" font-size="14.00">updated_at :datetime</text>
</g>
<!-- Article -->
<g id="node6" class="node"><title>Article</title>
<polyline fill="none" stroke="black" points="780.495,-1065.2 889.505,-1065.2 "/>
<path fill="none" stroke="black" d="M889.505,-1065.2C895.505,-1065.2 901.505,-1071.2 901.505,-1077.2"/>
<polyline fill="none" stroke="black" points="901.505,-1077.2 901.505,-1186.8 "/>
<path fill="none" stroke="black" d="M901.505,-1186.8C901.505,-1192.8 895.505,-1198.8 889.505,-1198.8"/>
<polyline fill="none" stroke="black" points="889.505,-1198.8 780.495,-1198.8 "/>
<path fill="none" stroke="black" d="M780.495,-1198.8C774.495,-1198.8 768.495,-1192.8 768.495,-1186.8"/>
<polyline fill="none" stroke="black" points="768.495,-1186.8 768.495,-1077.2 "/>
<path fill="none" stroke="black" d="M768.495,-1077.2C768.495,-1071.2 774.495,-1065.2 780.495,-1065.2"/>
<text text-anchor="middle" x="835" y="-1180.8" font-family="Times,serif" font-size="14.00">Article</text>
<polyline fill="none" stroke="black" points="768.495,-1174 901.505,-1174 "/>
<text text-anchor="start" x="776.495" y="-1156" font-family="Times,serif" font-size="14.00">id :integer</text>
<text text-anchor="start" x="776.495" y="-1139.2" font-family="Times,serif" font-size="14.00">title :string</text>
<text text-anchor="start" x="776.495" y="-1122.4" font-family="Times,serif" font-size="14.00">body :text</text>
<text text-anchor="start" x="776.495" y="-1105.6" font-family="Times,serif" font-size="14.00">slug :string</text>
<text text-anchor="start" x="776.495" y="-1088.8" font-family="Times,serif" font-size="14.00">created_at :datetime</text>
<text text-anchor="start" x="776.495" y="-1072" font-family="Times,serif" font-size="14.00">updated_at :datetime</text>
</g>
<!-- Category -->
<g id="node7" class="node"><title>Category</title>
<polyline fill="none" stroke="black" points="629.495,-1082 738.505,-1082 "/>
<path fill="none" stroke="black" d="M738.505,-1082C744.505,-1082 750.505,-1088 750.505,-1094"/>
<polyline fill="none" stroke="black" points="750.505,-1094 750.505,-1170 "/>
<path fill="none" stroke="black" d="M750.505,-1170C750.505,-1176 744.505,-1182 738.505,-1182"/>
<polyline fill="none" stroke="black" points="738.505,-1182 629.495,-1182 "/>
<path fill="none" stroke="black" d="M629.495,-1182C623.495,-1182 617.495,-1176 617.495,-1170"/>
<polyline fill="none" stroke="black" points="617.495,-1170 617.495,-1094 "/>
<path fill="none" stroke="black" d="M617.495,-1094C617.495,-1088 623.495,-1082 629.495,-1082"/>
<text text-anchor="middle" x="684" y="-1164" font-family="Times,serif" font-size="14.00">Category</text>
<polyline fill="none" stroke="black" points="617.495,-1157.2 750.505,-1157.2 "/>
<text text-anchor="start" x="625.495" y="-1139.2" font-family="Times,serif" font-size="14.00">id :integer</text>
<text text-anchor="start" x="625.495" y="-1122.4" font-family="Times,serif" font-size="14.00">name :string</text>
<text text-anchor="start" x="625.495" y="-1105.6" font-family="Times,serif" font-size="14.00">created_at :datetime</text>
<text text-anchor="start" x="625.495" y="-1088.8" font-family="Times,serif" font-size="14.00">updated_at :datetime</text>
</g>
<!-- Category&#45;&gt;Job -->
<g id="edge12" class="edge"><title>Category&#45;&gt;Job</title>
<path fill="none" stroke="#670430" d="M647.458,-1075.12C628.758,-1046.53 605.125,-1010.39 582.084,-975.16"/>
<ellipse fill="none" stroke="#670430" cx="649.749" cy="-1078.63" rx="4.00002" ry="4.00002"/>
<polygon fill="#670430" stroke="#670430" points="582.03,-975.077 580.323,-964.245 579.293,-970.893 576.557,-966.708 576.557,-966.708 576.557,-966.708 579.293,-970.893 572.79,-969.171 582.03,-975.077 582.03,-975.077"/>
</g>
<!-- Resume -->
<g id="node16" class="node"><title>Resume</title>
<polyline fill="none" stroke="black" points="768.053,-307 915.947,-307 "/>
<path fill="none" stroke="black" d="M915.947,-307C921.947,-307 927.947,-313 927.947,-319"/>
<polyline fill="none" stroke="black" points="927.947,-319 927.947,-647 "/>
<path fill="none" stroke="black" d="M927.947,-647C927.947,-653 921.947,-659 915.947,-659"/>
<polyline fill="none" stroke="black" points="915.947,-659 768.053,-659 "/>
<path fill="none" stroke="black" d="M768.053,-659C762.053,-659 756.053,-653 756.053,-647"/>
<polyline fill="none" stroke="black" points="756.053,-647 756.053,-319 "/>
<path fill="none" stroke="black" d="M756.053,-319C756.053,-313 762.053,-307 768.053,-307"/>
<text text-anchor="middle" x="842" y="-641" font-family="Times,serif" font-size="14.00">Resume</text>
<polyline fill="none" stroke="black" points="756.053,-634.2 927.947,-634.2 "/>
<text text-anchor="start" x="764.053" y="-616.2" font-family="Times,serif" font-size="14.00">id :integer</text>
<text text-anchor="start" x="764.053" y="-599.4" font-family="Times,serif" font-size="14.00">name :string</text>
<text text-anchor="start" x="764.053" y="-582.6" font-family="Times,serif" font-size="14.00">phone :string</text>
<text text-anchor="start" x="764.053" y="-565.8" font-family="Times,serif" font-size="14.00">email :string</text>
<text text-anchor="start" x="764.053" y="-549" font-family="Times,serif" font-size="14.00">website :string</text>
<text text-anchor="start" x="764.053" y="-532.2" font-family="Times,serif" font-size="14.00">status :string</text>
<text text-anchor="start" x="764.053" y="-515.4" font-family="Times,serif" font-size="14.00">growth_importance :string</text>
<text text-anchor="start" x="764.053" y="-498.6" font-family="Times,serif" font-size="14.00">distance_importance :string</text>
<text text-anchor="start" x="764.053" y="-481.8" font-family="Times,serif" font-size="14.00">freedom_importance :string</text>
<text text-anchor="start" x="764.053" y="-465" font-family="Times,serif" font-size="14.00">pay_importance :string</text>
<text text-anchor="start" x="764.053" y="-448.2" font-family="Times,serif" font-size="14.00">created_at :datetime</text>
<text text-anchor="start" x="764.053" y="-431.4" font-family="Times,serif" font-size="14.00">updated_at :datetime</text>
<text text-anchor="start" x="764.053" y="-414.6" font-family="Times,serif" font-size="14.00">twitter :string</text>
<text text-anchor="start" x="764.053" y="-397.8" font-family="Times,serif" font-size="14.00">user_id :integer</text>
<text text-anchor="start" x="764.053" y="-381" font-family="Times,serif" font-size="14.00">web_video :string</text>
<text text-anchor="start" x="764.053" y="-364.2" font-family="Times,serif" font-size="14.00">video :string</text>
<text text-anchor="start" x="764.053" y="-347.4" font-family="Times,serif" font-size="14.00">category1_id :integer</text>
<text text-anchor="start" x="764.053" y="-330.6" font-family="Times,serif" font-size="14.00">category2_id :integer</text>
<text text-anchor="start" x="764.053" y="-313.8" font-family="Times,serif" font-size="14.00">category3_id :integer</text>
</g>
<!-- Category&#45;&gt;Resume -->
<g id="edge14" class="edge"><title>Category&#45;&gt;Resume</title>
<path fill="none" stroke="#61ca1d" d="M715.984,-1074.76C727.985,-1056.6 742.708,-1037.24 759,-1022 783.16,-999.404 806.092,-1012.43 823,-984 878.535,-890.61 884.338,-769.119 875.749,-669.28"/>
<ellipse fill="none" stroke="#61ca1d" cx="713.524" cy="-1078.56" rx="4.00002" ry="4.00002"/>
<polygon fill="#61ca1d" stroke="#61ca1d" points="875.726,-669.031 879.295,-658.662 875.27,-664.052 874.814,-659.072 874.814,-659.072 874.814,-659.072 875.27,-664.052 870.333,-659.483 875.726,-669.031 875.726,-669.031"/>
</g>
<!-- CreditPackage -->
<g id="node8" class="node"><title>CreditPackage</title>
<polyline fill="none" stroke="black" points="931.495,-1065.2 1040.51,-1065.2 "/>
<path fill="none" stroke="black" d="M1040.51,-1065.2C1046.51,-1065.2 1052.51,-1071.2 1052.51,-1077.2"/>
<polyline fill="none" stroke="black" points="1052.51,-1077.2 1052.51,-1186.8 "/>
<path fill="none" stroke="black" d="M1052.51,-1186.8C1052.51,-1192.8 1046.51,-1198.8 1040.51,-1198.8"/>
<polyline fill="none" stroke="black" points="1040.51,-1198.8 931.495,-1198.8 "/>
<path fill="none" stroke="black" d="M931.495,-1198.8C925.495,-1198.8 919.495,-1192.8 919.495,-1186.8"/>
<polyline fill="none" stroke="black" points="919.495,-1186.8 919.495,-1077.2 "/>
<path fill="none" stroke="black" d="M919.495,-1077.2C919.495,-1071.2 925.495,-1065.2 931.495,-1065.2"/>
<text text-anchor="middle" x="986" y="-1180.8" font-family="Times,serif" font-size="14.00">CreditPackage</text>
<polyline fill="none" stroke="black" points="919.495,-1174 1052.51,-1174 "/>
<text text-anchor="start" x="927.495" y="-1156" font-family="Times,serif" font-size="14.00">id :integer</text>
<text text-anchor="start" x="927.495" y="-1139.2" font-family="Times,serif" font-size="14.00">name :string</text>
<text text-anchor="start" x="927.495" y="-1122.4" font-family="Times,serif" font-size="14.00">cost :decimal</text>
<text text-anchor="start" x="927.495" y="-1105.6" font-family="Times,serif" font-size="14.00">quantity :integer</text>
<text text-anchor="start" x="927.495" y="-1088.8" font-family="Times,serif" font-size="14.00">created_at :datetime</text>
<text text-anchor="start" x="927.495" y="-1072" font-family="Times,serif" font-size="14.00">updated_at :datetime</text>
</g>
<!-- CreditTransaction -->
<g id="node9" class="node"><title>CreditTransaction</title>
<polyline fill="none" stroke="black" points="1082.05,-1040 1229.95,-1040 "/>
<path fill="none" stroke="black" d="M1229.95,-1040C1235.95,-1040 1241.95,-1046 1241.95,-1052"/>
<polyline fill="none" stroke="black" points="1241.95,-1052 1241.95,-1212 "/>
<path fill="none" stroke="black" d="M1241.95,-1212C1241.95,-1218 1235.95,-1224 1229.95,-1224"/>
<polyline fill="none" stroke="black" points="1229.95,-1224 1082.05,-1224 "/>
<path fill="none" stroke="black" d="M1082.05,-1224C1076.05,-1224 1070.05,-1218 1070.05,-1212"/>
<polyline fill="none" stroke="black" points="1070.05,-1212 1070.05,-1052 "/>
<path fill="none" stroke="black" d="M1070.05,-1052C1070.05,-1046 1076.05,-1040 1082.05,-1040"/>
<text text-anchor="middle" x="1156" y="-1206" font-family="Times,serif" font-size="14.00">CreditTransaction</text>
<polyline fill="none" stroke="black" points="1070.05,-1199.2 1241.95,-1199.2 "/>
<text text-anchor="start" x="1078.05" y="-1181.2" font-family="Times,serif" font-size="14.00">id :integer</text>
<text text-anchor="start" x="1078.05" y="-1164.4" font-family="Times,serif" font-size="14.00">amount :decimal</text>
<text text-anchor="start" x="1078.05" y="-1147.6" font-family="Times,serif" font-size="14.00">description :string</text>
<text text-anchor="start" x="1078.05" y="-1130.8" font-family="Times,serif" font-size="14.00">quantity :integer</text>
<text text-anchor="start" x="1078.05" y="-1114" font-family="Times,serif" font-size="14.00">account_id :integer</text>
<text text-anchor="start" x="1078.05" y="-1097.2" font-family="Times,serif" font-size="14.00">credit_package_id :integer</text>
<text text-anchor="start" x="1078.05" y="-1080.4" font-family="Times,serif" font-size="14.00">payment_profile_id :integer</text>
<text text-anchor="start" x="1078.05" y="-1063.6" font-family="Times,serif" font-size="14.00">created_at :datetime</text>
<text text-anchor="start" x="1078.05" y="-1046.8" font-family="Times,serif" font-size="14.00">updated_at :datetime</text>
</g>
<!-- EmailSubscription -->
<g id="node10" class="node"><title>EmailSubscription</title>
<polyline fill="none" stroke="black" points="1271.49,-1065.2 1380.51,-1065.2 "/>
<path fill="none" stroke="black" d="M1380.51,-1065.2C1386.51,-1065.2 1392.51,-1071.2 1392.51,-1077.2"/>
<polyline fill="none" stroke="black" points="1392.51,-1077.2 1392.51,-1186.8 "/>
<path fill="none" stroke="black" d="M1392.51,-1186.8C1392.51,-1192.8 1386.51,-1198.8 1380.51,-1198.8"/>
<polyline fill="none" stroke="black" points="1380.51,-1198.8 1271.49,-1198.8 "/>
<path fill="none" stroke="black" d="M1271.49,-1198.8C1265.49,-1198.8 1259.49,-1192.8 1259.49,-1186.8"/>
<polyline fill="none" stroke="black" points="1259.49,-1186.8 1259.49,-1077.2 "/>
<path fill="none" stroke="black" d="M1259.49,-1077.2C1259.49,-1071.2 1265.49,-1065.2 1271.49,-1065.2"/>
<text text-anchor="middle" x="1326" y="-1180.8" font-family="Times,serif" font-size="14.00">EmailSubscription</text>
<polyline fill="none" stroke="black" points="1259.49,-1174 1392.51,-1174 "/>
<text text-anchor="start" x="1267.49" y="-1156" font-family="Times,serif" font-size="14.00">id :integer</text>
<text text-anchor="start" x="1267.49" y="-1139.2" font-family="Times,serif" font-size="14.00">query :string</text>
<text text-anchor="start" x="1267.49" y="-1122.4" font-family="Times,serif" font-size="14.00">location :string</text>
<text text-anchor="start" x="1267.49" y="-1105.6" font-family="Times,serif" font-size="14.00">email :string</text>
<text text-anchor="start" x="1267.49" y="-1088.8" font-family="Times,serif" font-size="14.00">created_at :datetime</text>
<text text-anchor="start" x="1267.49" y="-1072" font-family="Times,serif" font-size="14.00">updated_at :datetime</text>
</g>
<!-- Experience -->
<g id="node11" class="node"><title>Experience</title>
<polyline fill="none" stroke="black" points="640.391,-25.6 783.609,-25.6 "/>
<path fill="none" stroke="black" d="M783.609,-25.6C789.609,-25.6 795.609,-31.6 795.609,-37.6"/>
<polyline fill="none" stroke="black" points="795.609,-37.6 795.609,-214.4 "/>
<path fill="none" stroke="black" d="M795.609,-214.4C795.609,-220.4 789.609,-226.4 783.609,-226.4"/>
<polyline fill="none" stroke="black" points="783.609,-226.4 640.391,-226.4 "/>
<path fill="none" stroke="black" d="M640.391,-226.4C634.391,-226.4 628.391,-220.4 628.391,-214.4"/>
<polyline fill="none" stroke="black" points="628.391,-214.4 628.391,-37.6 "/>
<path fill="none" stroke="black" d="M628.391,-37.6C628.391,-31.6 634.391,-25.6 640.391,-25.6"/>
<text text-anchor="middle" x="712" y="-208.4" font-family="Times,serif" font-size="14.00">Experience</text>
<polyline fill="none" stroke="black" points="628.391,-201.6 795.609,-201.6 "/>
<text text-anchor="start" x="636.391" y="-183.6" font-family="Times,serif" font-size="14.00">id :integer</text>
<text text-anchor="start" x="636.391" y="-166.8" font-family="Times,serif" font-size="14.00">company_name :string</text>
<text text-anchor="start" x="636.391" y="-150" font-family="Times,serif" font-size="14.00">job_title :string</text>
<text text-anchor="start" x="636.391" y="-133.2" font-family="Times,serif" font-size="14.00">from :date</text>
<text text-anchor="start" x="636.391" y="-116.4" font-family="Times,serif" font-size="14.00">till :date</text>
<text text-anchor="start" x="636.391" y="-99.6" font-family="Times,serif" font-size="14.00">highlights :text</text>
<text text-anchor="start" x="636.391" y="-82.8" font-family="Times,serif" font-size="14.00">resume_id :integer</text>
<text text-anchor="start" x="636.391" y="-66" font-family="Times,serif" font-size="14.00">created_at :datetime</text>
<text text-anchor="start" x="636.391" y="-49.2" font-family="Times,serif" font-size="14.00">updated_at :datetime</text>
<text text-anchor="start" x="636.391" y="-32.4" font-family="Times,serif" font-size="14.00">current_employer :boolean</text>
</g>
<!-- Job&#45;&gt;JobApplication -->
<g id="edge16" class="edge"><title>Job&#45;&gt;JobApplication</title>
<path fill="none" stroke="#8b8ae4" d="M472.215,-707.025C463.704,-657.352 454.335,-602.674 447.003,-559.889"/>
<ellipse fill="none" stroke="#8b8ae4" cx="472.947" cy="-711.296" rx="4.00001" ry="4.00001"/>
<polygon fill="#8b8ae4" stroke="#8b8ae4" points="446.97,-559.693 449.716,-549.077 446.125,-554.765 445.281,-549.837 445.281,-549.837 445.281,-549.837 446.125,-554.765 440.846,-550.597 446.97,-559.693 446.97,-559.693"/>
</g>
<!-- JobApplication&#45;&gt;ApplicantAccess -->
<g id="edge18" class="edge"><title>JobApplication&#45;&gt;ApplicantAccess</title>
<path fill="none" stroke="#28bbf4" d="M395.299,-408.922C361.495,-345.089 312.885,-253.299 280.414,-191.985"/>
<ellipse fill="none" stroke="#28bbf4" cx="397.207" cy="-412.524" rx="4.00002" ry="4.00002"/>
<ellipse fill="#28bbf4" stroke="#28bbf4" cx="278.409" cy="-188.197" rx="4.00002" ry="4.00002"/>
<text text-anchor="middle" x="375.031" y="-273.4" font-family="Times,serif" font-size="14.00">applicant_access</text>
</g>
<!-- Reference -->
<g id="node15" class="node"><title>Reference</title>
<polyline fill="none" stroke="black" points="825.781,-17.2 940.219,-17.2 "/>
<path fill="none" stroke="black" d="M940.219,-17.2C946.219,-17.2 952.219,-23.2 952.219,-29.2"/>
<polyline fill="none" stroke="black" points="952.219,-29.2 952.219,-222.8 "/>
<path fill="none" stroke="black" d="M952.219,-222.8C952.219,-228.8 946.219,-234.8 940.219,-234.8"/>
<polyline fill="none" stroke="black" points="940.219,-234.8 825.781,-234.8 "/>
<path fill="none" stroke="black" d="M825.781,-234.8C819.781,-234.8 813.781,-228.8 813.781,-222.8"/>
<polyline fill="none" stroke="black" points="813.781,-222.8 813.781,-29.2 "/>
<path fill="none" stroke="black" d="M813.781,-29.2C813.781,-23.2 819.781,-17.2 825.781,-17.2"/>
<text text-anchor="middle" x="883" y="-216.8" font-family="Times,serif" font-size="14.00">Reference</text>
<polyline fill="none" stroke="black" points="813.781,-210 952.219,-210 "/>
<text text-anchor="start" x="821.781" y="-192" font-family="Times,serif" font-size="14.00">id :integer</text>
<text text-anchor="start" x="821.781" y="-175.2" font-family="Times,serif" font-size="14.00">name :string</text>
<text text-anchor="start" x="821.781" y="-158.4" font-family="Times,serif" font-size="14.00">job_title :string</text>
<text text-anchor="start" x="821.781" y="-141.6" font-family="Times,serif" font-size="14.00">company :string</text>
<text text-anchor="start" x="821.781" y="-124.8" font-family="Times,serif" font-size="14.00">phone :string</text>
<text text-anchor="start" x="821.781" y="-108" font-family="Times,serif" font-size="14.00">email :string</text>
<text text-anchor="start" x="821.781" y="-91.2" font-family="Times,serif" font-size="14.00">notes :text</text>
<text text-anchor="start" x="821.781" y="-74.4" font-family="Times,serif" font-size="14.00">reference_type :string</text>
<text text-anchor="start" x="821.781" y="-57.6" font-family="Times,serif" font-size="14.00">created_at :datetime</text>
<text text-anchor="start" x="821.781" y="-40.8" font-family="Times,serif" font-size="14.00">updated_at :datetime</text>
<text text-anchor="start" x="821.781" y="-24" font-family="Times,serif" font-size="14.00">resume_id :integer</text>
</g>
<!-- Resume&#45;&gt;Address -->
<g id="edge20" class="edge"><title>Resume&#45;&gt;Address</title>
<path fill="none" stroke="#cdb628" d="M750.038,-309.775C748.708,-308.494 747.361,-307.235 746,-306 700.572,-264.79 666.282,-291.069 619,-252 618.83,-251.859 618.66,-251.719 618.49,-251.577"/>
<ellipse fill="none" stroke="#cdb628" cx="752.953" cy="-312.7" rx="4.00002" ry="4.00002"/>
<polygon fill="#cdb628" stroke="#cdb628" points="618.485,-251.572 613.983,-241.573 614.742,-248.257 610.999,-244.941 610.999,-244.941 610.999,-244.941 614.742,-248.257 608.015,-248.31 618.485,-251.572 618.485,-251.572"/>
</g>
<!-- Resume&#45;&gt;Experience -->
<g id="edge22" class="edge"><title>Resume&#45;&gt;Experience</title>
<path fill="none" stroke="#e583cc" d="M775.012,-299.07C767.1,-277.464 759.227,-255.966 751.863,-235.856"/>
<ellipse fill="none" stroke="#e583cc" cx="776.481" cy="-303.084" rx="4.00001" ry="4.00001"/>
<polygon fill="#e583cc" stroke="#e583cc" points="751.843,-235.802 752.63,-224.865 750.124,-231.107 748.404,-226.412 748.404,-226.412 748.404,-226.412 750.124,-231.107 744.179,-227.959 751.843,-235.802 751.843,-235.802"/>
</g>
<!-- Resume&#45;&gt;Reference -->
<g id="edge26" class="edge"><title>Resume&#45;&gt;Reference</title>
<path fill="none" stroke="#58d32b" d="M863.157,-298.808C865.261,-280.59 867.356,-262.453 869.353,-245.163"/>
<ellipse fill="none" stroke="#58d32b" cx="862.689" cy="-302.866" rx="4.00001" ry="4.00001"/>
<polygon fill="#58d32b" stroke="#58d32b" points="869.369,-245.022 874.987,-235.604 869.943,-240.055 870.517,-235.088 870.517,-235.088 870.517,-235.088 869.943,-240.055 866.046,-234.571 869.369,-245.022 869.369,-245.022"/>
</g>
<!-- School -->
<g id="node18" class="node"><title>School</title>
<polyline fill="none" stroke="black" points="982.333,-17.2 1135.67,-17.2 "/>
<path fill="none" stroke="black" d="M1135.67,-17.2C1141.67,-17.2 1147.67,-23.2 1147.67,-29.2"/>
<polyline fill="none" stroke="black" points="1147.67,-29.2 1147.67,-222.8 "/>
<path fill="none" stroke="black" d="M1147.67,-222.8C1147.67,-228.8 1141.67,-234.8 1135.67,-234.8"/>
<polyline fill="none" stroke="black" points="1135.67,-234.8 982.333,-234.8 "/>
<path fill="none" stroke="black" d="M982.333,-234.8C976.333,-234.8 970.333,-228.8 970.333,-222.8"/>
<polyline fill="none" stroke="black" points="970.333,-222.8 970.333,-29.2 "/>
<path fill="none" stroke="black" d="M970.333,-29.2C970.333,-23.2 976.333,-17.2 982.333,-17.2"/>
<text text-anchor="middle" x="1059" y="-216.8" font-family="Times,serif" font-size="14.00">School</text>
<polyline fill="none" stroke="black" points="970.333,-210 1147.67,-210 "/>
<text text-anchor="start" x="978.333" y="-192" font-family="Times,serif" font-size="14.00">id :integer</text>
<text text-anchor="start" x="978.333" y="-175.2" font-family="Times,serif" font-size="14.00">name :string</text>
<text text-anchor="start" x="978.333" y="-158.4" font-family="Times,serif" font-size="14.00">degree_type :string</text>
<text text-anchor="start" x="978.333" y="-141.6" font-family="Times,serif" font-size="14.00">degree_name :string</text>
<text text-anchor="start" x="978.333" y="-124.8" font-family="Times,serif" font-size="14.00">from :date</text>
<text text-anchor="start" x="978.333" y="-108" font-family="Times,serif" font-size="14.00">till :date</text>
<text text-anchor="start" x="978.333" y="-91.2" font-family="Times,serif" font-size="14.00">currently_attending :boolean</text>
<text text-anchor="start" x="978.333" y="-74.4" font-family="Times,serif" font-size="14.00">highlights :text</text>
<text text-anchor="start" x="978.333" y="-57.6" font-family="Times,serif" font-size="14.00">resume_id :integer</text>
<text text-anchor="start" x="978.333" y="-40.8" font-family="Times,serif" font-size="14.00">created_at :datetime</text>
<text text-anchor="start" x="978.333" y="-24" font-family="Times,serif" font-size="14.00">updated_at :datetime</text>
</g>
<!-- Resume&#45;&gt;School -->
<g id="edge24" class="edge"><title>Resume&#45;&gt;School</title>
<path fill="none" stroke="#13b892" d="M932.393,-334.122C950.79,-304.025 969.902,-272.76 987.531,-243.919"/>
<ellipse fill="none" stroke="#13b892" cx="930.162" cy="-337.772" rx="4.00002" ry="4.00002"/>
<polygon fill="#13b892" stroke="#13b892" points="987.737,-243.583 996.792,-237.397 990.344,-239.317 992.952,-235.05 992.952,-235.05 992.952,-235.05 990.344,-239.317 989.113,-232.704 987.737,-243.583 987.737,-243.583"/>
</g>
<!-- ScamReport -->
<g id="node17" class="node"><title>ScamReport</title>
<polyline fill="none" stroke="black" points="578.04,-382.6 725.96,-382.6 "/>
<path fill="none" stroke="black" d="M725.96,-382.6C731.96,-382.6 737.96,-388.6 737.96,-394.6"/>
<polyline fill="none" stroke="black" points="737.96,-394.6 737.96,-571.4 "/>
<path fill="none" stroke="black" d="M737.96,-571.4C737.96,-577.4 731.96,-583.4 725.96,-583.4"/>
<polyline fill="none" stroke="black" points="725.96,-583.4 578.04,-583.4 "/>
<path fill="none" stroke="black" d="M578.04,-583.4C572.04,-583.4 566.04,-577.4 566.04,-571.4"/>
<polyline fill="none" stroke="black" points="566.04,-571.4 566.04,-394.6 "/>
<path fill="none" stroke="black" d="M566.04,-394.6C566.04,-388.6 572.04,-382.6 578.04,-382.6"/>
<text text-anchor="middle" x="652" y="-565.4" font-family="Times,serif" font-size="14.00">ScamReport</text>
<polyline fill="none" stroke="black" points="566.04,-558.6 737.96,-558.6 "/>
<text text-anchor="start" x="574.04" y="-540.6" font-family="Times,serif" font-size="14.00">id :integer</text>
<text text-anchor="start" x="574.04" y="-523.8" font-family="Times,serif" font-size="14.00">scammer_type :string</text>
<text text-anchor="start" x="574.04" y="-507" font-family="Times,serif" font-size="14.00">name_used :string</text>
<text text-anchor="start" x="574.04" y="-490.2" font-family="Times,serif" font-size="14.00">email_used :string</text>
<text text-anchor="start" x="574.04" y="-473.4" font-family="Times,serif" font-size="14.00">reporter_ip :string</text>
<text text-anchor="start" x="574.04" y="-456.6" font-family="Times,serif" font-size="14.00">user_id :integer</text>
<text text-anchor="start" x="574.04" y="-439.8" font-family="Times,serif" font-size="14.00">phone_number_used :string</text>
<text text-anchor="start" x="574.04" y="-423" font-family="Times,serif" font-size="14.00">any_additional_info :text</text>
<text text-anchor="start" x="574.04" y="-406.2" font-family="Times,serif" font-size="14.00">created_at :datetime</text>
<text text-anchor="start" x="574.04" y="-389.4" font-family="Times,serif" font-size="14.00">updated_at :datetime</text>
</g>
<!-- User&#45;&gt;JobApplication -->
<g id="edge28" class="edge"><title>User&#45;&gt;JobApplication</title>
<path fill="none" stroke="#3c1638" d="M604.249,-702.539C602.832,-701.011 601.416,-699.497 600,-698 582.477,-679.469 573.98,-679.031 557,-660 529.092,-628.721 501.969,-590.962 480.326,-558.451"/>
<ellipse fill="none" stroke="#3c1638" cx="607.01" cy="-705.554" rx="4.00002" ry="4.00002"/>
<polygon fill="#3c1638" stroke="#3c1638" points="480.169,-558.214 478.413,-547.389 477.414,-554.042 474.658,-549.869 474.658,-549.869 474.658,-549.869 477.414,-554.042 470.903,-552.349 480.169,-558.214 480.169,-558.214"/>
</g>
<!-- User&#45;&gt;Resume -->
<g id="edge32" class="edge"><title>User&#45;&gt;Resume</title>
<path fill="none" stroke="#2efee0" d="M766.451,-690.887C769.337,-682.985 772.251,-675.004 775.17,-667.01"/>
<ellipse fill="none" stroke="#2efee0" cx="765.032" cy="-694.775" rx="4.00001" ry="4.00001"/>
<ellipse fill="#2efee0" stroke="#2efee0" cx="776.718" cy="-662.772" rx="4.00001" ry="4.00001"/>
</g>
<!-- User&#45;&gt;ScamReport -->
<g id="edge30" class="edge"><title>User&#45;&gt;ScamReport</title>
<path fill="none" stroke="#bdc01e" d="M686.782,-690.376C681.319,-657.96 675.639,-624.255 670.491,-593.712"/>
<ellipse fill="none" stroke="#bdc01e" cx="687.492" cy="-694.588" rx="4.00001" ry="4.00001"/>
<polygon fill="#bdc01e" stroke="#bdc01e" points="670.429,-593.343 673.204,-582.734 669.598,-588.412 668.767,-583.482 668.767,-583.482 668.767,-583.482 669.598,-588.412 664.329,-584.23 670.429,-593.343 670.429,-593.343"/>
</g>
<!-- ValidationRequest -->
<g id="node20" class="node"><title>ValidationRequest</title>
<polyline fill="none" stroke="black" points="1422.37,-1031.6 1565.63,-1031.6 "/>
<path fill="none" stroke="black" d="M1565.63,-1031.6C1571.63,-1031.6 1577.63,-1037.6 1577.63,-1043.6"/>
<polyline fill="none" stroke="black" points="1577.63,-1043.6 1577.63,-1220.4 "/>
<path fill="none" stroke="black" d="M1577.63,-1220.4C1577.63,-1226.4 1571.63,-1232.4 1565.63,-1232.4"/>
<polyline fill="none" stroke="black" points="1565.63,-1232.4 1422.37,-1232.4 "/>
<path fill="none" stroke="black" d="M1422.37,-1232.4C1416.37,-1232.4 1410.37,-1226.4 1410.37,-1220.4"/>
<polyline fill="none" stroke="black" points="1410.37,-1220.4 1410.37,-1043.6 "/>
<path fill="none" stroke="black" d="M1410.37,-1043.6C1410.37,-1037.6 1416.37,-1031.6 1422.37,-1031.6"/>
<text text-anchor="middle" x="1494" y="-1214.4" font-family="Times,serif" font-size="14.00">ValidationRequest</text>
<polyline fill="none" stroke="black" points="1410.37,-1207.6 1577.63,-1207.6 "/>
<text text-anchor="start" x="1418.37" y="-1189.6" font-family="Times,serif" font-size="14.00">id :integer</text>
<text text-anchor="start" x="1418.37" y="-1172.8" font-family="Times,serif" font-size="14.00">account_id :integer</text>
<text text-anchor="start" x="1418.37" y="-1156" font-family="Times,serif" font-size="14.00">name :string</text>
<text text-anchor="start" x="1418.37" y="-1139.2" font-family="Times,serif" font-size="14.00">ein :string</text>
<text text-anchor="start" x="1418.37" y="-1122.4" font-family="Times,serif" font-size="14.00">ssn :string</text>
<text text-anchor="start" x="1418.37" y="-1105.6" font-family="Times,serif" font-size="14.00">industry :string</text>
<text text-anchor="start" x="1418.37" y="-1088.8" font-family="Times,serif" font-size="14.00">length_of_business :string</text>
<text text-anchor="start" x="1418.37" y="-1072" font-family="Times,serif" font-size="14.00">commission_only :boolean</text>
<text text-anchor="start" x="1418.37" y="-1055.2" font-family="Times,serif" font-size="14.00">created_at :datetime</text>
<text text-anchor="start" x="1418.37" y="-1038.4" font-family="Times,serif" font-size="14.00">updated_at :datetime</text>
</g>
</g>
</svg>
