<?xml version="1.0" encoding="UTF-8" standalone="no"?>
<!DOCTYPE svg PUBLIC "-//W3C//DTD SVG 1.1//EN"
 "http://www.w3.org/Graphics/SVG/1.1/DTD/svg11.dtd">
<!-- Generated by graphviz version 2.28.0 (20130409.2258)
 -->
<!-- Title: models_diagram Pages: 1 -->
<svg width="1323pt" height="332pt"
 viewBox="0.00 0.00 1323.00 332.00" xmlns="http://www.w3.org/2000/svg" xmlns:xlink="http://www.w3.org/1999/xlink">
<g id="graph1" class="graph" transform="scale(1 1) rotate(0) translate(4 328)">
<title>models_diagram</title>
<polygon fill="white" stroke="white" points="-4,5 -4,-328 1320,-328 1320,5 -4,5"/>
<!-- _diagram_info -->
<g id="node1" class="node"><title>_diagram_info</title>
<text text-anchor="start" x="7.31226" y="-307" font-family="Times,serif" font-size="13.00">Models diagram</text>
<text text-anchor="start" x="7.31226" y="-291.4" font-family="Times,serif" font-size="13.00">Date: Apr 26 2013 &#45; 15:56</text>
<text text-anchor="start" x="7.31226" y="-275.8" font-family="Times,serif" font-size="13.00">Migration version: 20130425060910</text>
<text text-anchor="start" x="7.31226" y="-260.2" font-family="Times,serif" font-size="13.00">Generated by RailRoady 1.1.0</text>
<text text-anchor="start" x="7.31226" y="-244.6" font-family="Times,serif" font-size="13.00">http://railroady.prestonlee.com</text>
</g>
<!-- Ability -->
<g id="node2" class="node"><title>Ability</title>
<polygon fill="none" stroke="black" points="280.255,-299 225.745,-299 225.745,-263 280.255,-263 280.255,-299"/>
<text text-anchor="middle" x="253" y="-275.4" font-family="Times,serif" font-size="14.00">Ability</text>
</g>
<!-- Account -->
<g id="node3" class="node"><title>Account</title>
<ellipse fill="none" stroke="black" cx="343" cy="-281" rx="43.1305" ry="18"/>
<text text-anchor="middle" x="343" y="-275.4" font-family="Times,serif" font-size="14.00">Account</text>
</g>
<!-- ApplicantAccess -->
<g id="node5" class="node"><title>ApplicantAccess</title>
<ellipse fill="none" stroke="black" cx="204" cy="-18" rx="76.1992" ry="18"/>
<text text-anchor="middle" x="204" y="-12.4" font-family="Times,serif" font-size="14.00">ApplicantAccess</text>
</g>
<!-- Account&#45;&gt;ApplicantAccess -->
<g id="edge6" class="edge"><title>Account&#45;&gt;ApplicantAccess</title>
<path fill="none" stroke="#481ce1" d="M319.829,-258.957C310.724,-251.526 299.862,-243.628 289,-238 237.444,-211.285 198.576,-246.649 164,-200 129.375,-153.284 163.554,-82.345 186.661,-44.6489"/>
<ellipse fill="none" stroke="#481ce1" cx="323.061" cy="-261.672" rx="4.00002" ry="4.00002"/>
<polygon fill="#481ce1" stroke="#481ce1" points="186.902,-44.2673 196.052,-38.2221 189.575,-40.0418 192.249,-35.8164 192.249,-35.8164 192.249,-35.8164 189.575,-40.0418 188.446,-33.4106 186.902,-44.2673 186.902,-44.2673"/>
</g>
<!-- Job -->
<g id="node12" class="node"><title>Job</title>
<ellipse fill="none" stroke="black" cx="398" cy="-182" rx="27" ry="18"/>
<text text-anchor="middle" x="398" y="-176.4" font-family="Times,serif" font-size="14.00">Job</text>
</g>
<!-- Account&#45;&gt;Job -->
<g id="edge2" class="edge"><title>Account&#45;&gt;Job</title>
<path fill="none" stroke="#c691c5" d="M356.663,-255.904C364.913,-241.354 375.41,-222.841 383.762,-208.111"/>
<ellipse fill="none" stroke="#c691c5" cx="354.553" cy="-259.624" rx="4.00002" ry="4.00002"/>
<polygon fill="#c691c5" stroke="#c691c5" points="383.962,-207.757 392.809,-201.278 386.429,-203.408 388.895,-199.058 388.895,-199.058 388.895,-199.058 386.429,-203.408 384.98,-196.839 383.962,-207.757 383.962,-207.757"/>
</g>
<!-- JobApplication -->
<g id="node13" class="node"><title>JobApplication</title>
<ellipse fill="none" stroke="black" cx="325" cy="-108" rx="70.0658" ry="18"/>
<text text-anchor="middle" x="325" y="-102.4" font-family="Times,serif" font-size="14.00">JobApplication</text>
</g>
<!-- Account&#45;&gt;JobApplication -->
<g id="edge8" class="edge"><title>Account&#45;&gt;JobApplication</title>
<path fill="none" stroke="#a5cc35" d="M340.14,-252.831C336.777,-220.878 331.226,-168.151 327.862,-136.189"/>
<polygon fill="#a5cc35" stroke="#a5cc35" points="340.161,-253.034 336.733,-263.45 340.685,-258.006 341.208,-262.979 341.208,-262.979 341.208,-262.979 340.685,-258.006 345.684,-262.508 340.161,-253.034 340.161,-253.034"/>
<polygon fill="#a5cc35" stroke="#a5cc35" points="327.858,-136.151 331.286,-125.735 327.335,-131.179 326.811,-126.206 326.811,-126.206 326.811,-126.206 327.335,-131.179 322.336,-126.677 327.858,-136.151 327.858,-136.151"/>
</g>
<!-- PaymentProfile -->
<g id="node14" class="node"><title>PaymentProfile</title>
<ellipse fill="none" stroke="black" cx="244" cy="-182" rx="70.3789" ry="18"/>
<text text-anchor="middle" x="244" y="-176.4" font-family="Times,serif" font-size="14.00">PaymentProfile</text>
</g>
<!-- Account&#45;&gt;PaymentProfile -->
<g id="edge10" class="edge"><title>Account&#45;&gt;PaymentProfile</title>
<path fill="none" stroke="#af1cb6" d="M320.813,-258.262C305.272,-243.034 284.501,-222.683 268.478,-206.983"/>
<ellipse fill="none" stroke="#af1cb6" cx="323.795" cy="-261.183" rx="4.00002" ry="4.00002"/>
<polygon fill="#af1cb6" stroke="#af1cb6" points="268.179,-206.691 264.186,-196.478 264.608,-203.191 261.036,-199.692 261.036,-199.692 261.036,-199.692 264.608,-203.191 257.887,-202.906 268.179,-206.691 268.179,-206.691"/>
</g>
<!-- User -->
<g id="node19" class="node"><title>User</title>
<ellipse fill="none" stroke="black" cx="472" cy="-182" rx="28.9087" ry="18"/>
<text text-anchor="middle" x="472" y="-176.4" font-family="Times,serif" font-size="14.00">User</text>
</g>
<!-- Account&#45;&gt;User -->
<g id="edge4" class="edge"><title>Account&#45;&gt;User</title>
<path fill="none" stroke="#a77920" d="M369.621,-259.982C392.021,-243.139 423.86,-219.198 446.065,-202.502"/>
<ellipse fill="none" stroke="#a77920" cx="366.353" cy="-262.44" rx="4.00002" ry="4.00002"/>
<polygon fill="#a77920" stroke="#a77920" points="446.071,-202.497 456.768,-200.084 450.067,-199.492 454.063,-196.487 454.063,-196.487 454.063,-196.487 450.067,-199.492 451.359,-192.891 446.071,-202.497 446.071,-202.497"/>
</g>
<!-- Address -->
<g id="node4" class="node"><title>Address</title>
<ellipse fill="none" stroke="black" cx="400" cy="-18" rx="42.5278" ry="18"/>
<text text-anchor="middle" x="400" y="-12.4" font-family="Times,serif" font-size="14.00">Address</text>
</g>
<!-- Article -->
<g id="node6" class="node"><title>Article</title>
<ellipse fill="none" stroke="black" cx="581" cy="-281" rx="37.2739" ry="18"/>
<text text-anchor="middle" x="581" y="-275.4" font-family="Times,serif" font-size="14.00">Article</text>
</g>
<!-- Category -->
<g id="node7" class="node"><title>Category</title>
<ellipse fill="none" stroke="black" cx="479" cy="-281" rx="46.1519" ry="18"/>
<text text-anchor="middle" x="479" y="-275.4" font-family="Times,serif" font-size="14.00">Category</text>
</g>
<!-- Category&#45;&gt;Job -->
<g id="edge12" class="edge"><title>Category&#45;&gt;Job</title>
<path fill="none" stroke="#e8c284" d="M459.949,-257.186C447.146,-241.854 430.323,-221.708 417.44,-206.28"/>
<ellipse fill="none" stroke="#e8c284" cx="462.696" cy="-260.475" rx="4.00002" ry="4.00002"/>
<polygon fill="#e8c284" stroke="#e8c284" points="417.148,-205.93 414.192,-195.37 413.943,-202.092 410.738,-198.255 410.738,-198.255 410.738,-198.255 413.943,-202.092 407.284,-201.139 417.148,-205.93 417.148,-205.93"/>
</g>
<!-- Resume -->
<g id="node16" class="node"><title>Resume</title>
<ellipse fill="none" stroke="black" cx="591" cy="-108" rx="42.2224" ry="18"/>
<text text-anchor="middle" x="591" y="-102.4" font-family="Times,serif" font-size="14.00">Resume</text>
</g>
<!-- Category&#45;&gt;Resume -->
<g id="edge14" class="edge"><title>Category&#45;&gt;Resume</title>
<path fill="none" stroke="#27c8ee" d="M494.547,-256.262C515.61,-224.105 553.044,-166.951 574.558,-134.103"/>
<ellipse fill="none" stroke="#27c8ee" cx="492.135" cy="-259.946" rx="4.00002" ry="4.00002"/>
<polygon fill="#27c8ee" stroke="#27c8ee" points="574.698,-133.889 583.942,-127.989 577.438,-129.706 580.178,-125.524 580.178,-125.524 580.178,-125.524 577.438,-129.706 576.413,-123.058 574.698,-133.889 574.698,-133.889"/>
</g>
<!-- CreditPackage -->
<g id="node8" class="node"><title>CreditPackage</title>
<ellipse fill="none" stroke="black" cx="704" cy="-281" rx="67.0208" ry="18"/>
<text text-anchor="middle" x="704" y="-275.4" font-family="Times,serif" font-size="14.00">CreditPackage</text>
</g>
<!-- CreditTransaction -->
<g id="node9" class="node"><title>CreditTransaction</title>
<ellipse fill="none" stroke="black" cx="870" cy="-281" rx="80.1336" ry="18"/>
<text text-anchor="middle" x="870" y="-275.4" font-family="Times,serif" font-size="14.00">CreditTransaction</text>
</g>
<!-- EmailSubscription -->
<g id="node10" class="node"><title>EmailSubscription</title>
<ellipse fill="none" stroke="black" cx="1051" cy="-281" rx="82.3825" ry="18"/>
<text text-anchor="middle" x="1051" y="-275.4" font-family="Times,serif" font-size="14.00">EmailSubscription</text>
</g>
<!-- Experience -->
<g id="node11" class="node"><title>Experience</title>
<ellipse fill="none" stroke="black" cx="515" cy="-18" rx="54.1969" ry="18"/>
<text text-anchor="middle" x="515" y="-12.4" font-family="Times,serif" font-size="14.00">Experience</text>
</g>
<!-- Job&#45;&gt;JobApplication -->
<g id="edge16" class="edge"><title>Job&#45;&gt;JobApplication</title>
<path fill="none" stroke="#5c8a37" d="M377.633,-160.912C368.853,-152.252 358.513,-142.054 349.333,-133"/>
<ellipse fill="none" stroke="#5c8a37" cx="380.73" cy="-163.966" rx="4.00002" ry="4.00002"/>
<polygon fill="#5c8a37" stroke="#5c8a37" points="349.074,-132.744 345.114,-122.518 345.514,-129.233 341.954,-125.722 341.954,-125.722 341.954,-125.722 345.514,-129.233 338.794,-128.926 349.074,-132.744 349.074,-132.744"/>
</g>
<!-- JobApplication&#45;&gt;ApplicantAccess -->
<g id="edge18" class="edge"><title>JobApplication&#45;&gt;ApplicantAccess</title>
<path fill="none" stroke="#93cc10" d="M296.152,-86.0195C277.05,-72.1276 252.09,-53.9743 232.965,-40.0651"/>
<ellipse fill="none" stroke="#93cc10" cx="299.572" cy="-88.5067" rx="4.00002" ry="4.00002"/>
<ellipse fill="#93cc10" stroke="#93cc10" cx="229.697" cy="-37.689" rx="4.00002" ry="4.00002"/>
<text text-anchor="middle" x="322.031" y="-57.4" font-family="Times,serif" font-size="14.00">applicant_access</text>
</g>
<!-- Reference -->
<g id="node15" class="node"><title>Reference</title>
<ellipse fill="none" stroke="black" cx="638" cy="-18" rx="50.2535" ry="18"/>
<text text-anchor="middle" x="638" y="-12.4" font-family="Times,serif" font-size="14.00">Reference</text>
</g>
<!-- Resume&#45;&gt;Address -->
<g id="edge20" class="edge"><title>Resume&#45;&gt;Address</title>
<path fill="none" stroke="#0b3eb9" d="M555.674,-90.7243C521.94,-75.1817 471.301,-51.8506 437.015,-36.0543"/>
<ellipse fill="none" stroke="#0b3eb9" cx="559.594" cy="-92.5302" rx="4.00002" ry="4.00002"/>
<polygon fill="#0b3eb9" stroke="#0b3eb9" points="436.889,-35.996 429.69,-27.7243 432.348,-33.9037 427.807,-31.8114 427.807,-31.8114 427.807,-31.8114 432.348,-33.9037 425.923,-35.8985 436.889,-35.996 436.889,-35.996"/>
</g>
<!-- Resume&#45;&gt;Experience -->
<g id="edge22" class="edge"><title>Resume&#45;&gt;Experience</title>
<path fill="none" stroke="#33638c" d="M571.685,-84.6347C560.773,-72.0003 547.125,-56.1975 535.955,-43.2642"/>
<ellipse fill="none" stroke="#33638c" cx="574.446" cy="-87.8321" rx="4.00002" ry="4.00002"/>
<polygon fill="#33638c" stroke="#33638c" points="535.904,-43.2044 532.773,-32.6949 532.636,-39.4203 529.368,-35.6362 529.368,-35.6362 529.368,-35.6362 532.636,-39.4203 525.962,-38.5775 535.904,-43.2044 535.904,-43.2044"/>
</g>
<!-- Resume&#45;&gt;Reference -->
<g id="edge26" class="edge"><title>Resume&#45;&gt;Reference</title>
<path fill="none" stroke="#c1409f" d="M604.003,-82.6537C610.265,-70.9287 617.779,-56.8601 624.149,-44.9344"/>
<ellipse fill="none" stroke="#c1409f" cx="601.947" cy="-86.5044" rx="4.00002" ry="4.00002"/>
<polygon fill="#c1409f" stroke="#c1409f" points="624.255,-44.736 632.935,-38.0352 626.61,-40.3256 628.966,-35.9152 628.966,-35.9152 628.966,-35.9152 626.61,-40.3256 624.996,-33.7952 624.255,-44.736 624.255,-44.736"/>
</g>
<!-- School -->
<g id="node18" class="node"><title>School</title>
<ellipse fill="none" stroke="black" cx="744" cy="-18" rx="37.2949" ry="18"/>
<text text-anchor="middle" x="744" y="-12.4" font-family="Times,serif" font-size="14.00">School</text>
</g>
<!-- Resume&#45;&gt;School -->
<g id="edge24" class="edge"><title>Resume&#45;&gt;School</title>
<path fill="none" stroke="#9ed2c6" d="M622.369,-88.9575C648.547,-73.9008 685.7,-52.532 712.041,-37.3816"/>
<ellipse fill="none" stroke="#9ed2c6" cx="618.711" cy="-91.0618" rx="4.00002" ry="4.00002"/>
<polygon fill="#9ed2c6" stroke="#9ed2c6" points="712.203,-37.2884 723.115,-36.2034 716.537,-34.7955 720.872,-32.3026 720.872,-32.3026 720.872,-32.3026 716.537,-34.7955 718.628,-28.4018 712.203,-37.2884 712.203,-37.2884"/>
</g>
<!-- ScamReport -->
<g id="node17" class="node"><title>ScamReport</title>
<ellipse fill="none" stroke="black" cx="472" cy="-108" rx="58.1637" ry="18"/>
<text text-anchor="middle" x="472" y="-102.4" font-family="Times,serif" font-size="14.00">ScamReport</text>
</g>
<!-- User&#45;&gt;JobApplication -->
<g id="edge28" class="edge"><title>User&#45;&gt;JobApplication</title>
<path fill="none" stroke="#153e8f" d="M442.259,-166.433C420.027,-155.544 389.395,-140.541 365.015,-128.599"/>
<ellipse fill="none" stroke="#153e8f" cx="446.082" cy="-168.305" rx="4.00002" ry="4.00002"/>
<polygon fill="#153e8f" stroke="#153e8f" points="364.989,-128.586 357.987,-120.146 360.498,-126.387 356.008,-124.188 356.008,-124.188 356.008,-124.188 360.498,-126.387 354.028,-128.229 364.989,-128.586 364.989,-128.586"/>
</g>
<!-- User&#45;&gt;Resume -->
<g id="edge32" class="edge"><title>User&#45;&gt;Resume</title>
<path fill="none" stroke="#a63473" d="M499.137,-164.581C517.403,-153.529 541.518,-138.939 560.456,-127.48"/>
<ellipse fill="none" stroke="#a63473" cx="495.609" cy="-166.716" rx="4.00002" ry="4.00002"/>
<ellipse fill="#a63473" stroke="#a63473" cx="564.016" cy="-125.326" rx="4.00002" ry="4.00002"/>
</g>
<!-- User&#45;&gt;ScamReport -->
<g id="edge30" class="edge"><title>User&#45;&gt;ScamReport</title>
<path fill="none" stroke="#291abe" d="M472,-155.792C472,-149.58 472,-142.896 472,-136.579"/>
<ellipse fill="none" stroke="#291abe" cx="472" cy="-159.937" rx="4" ry="4"/>
<polygon fill="#291abe" stroke="#291abe" points="472,-136.441 476.5,-126.441 472,-131.441 472,-126.441 472,-126.441 472,-126.441 472,-131.441 467.5,-126.441 472,-136.441 472,-136.441"/>
</g>
<!-- ValidationRequest -->
<g id="node20" class="node"><title>ValidationRequest</title>
<ellipse fill="none" stroke="black" cx="1234" cy="-281" rx="81.2634" ry="18"/>
<text text-anchor="middle" x="1234" y="-275.4" font-family="Times,serif" font-size="14.00">ValidationRequest</text>
</g>
</g>
</svg>
